# Blender 4.2.12 LTS Release Candidate
# www.blender.org
mtllib Deep Guardian.mtl
o DP.003
v 0.615763 -0.708355 0.293838
v 0.174984 1.303069 0.553777
v 0.477712 -0.366833 -0.683911
v 0.121489 0.892566 -0.788781
v -0.000000 -0.513543 -0.798067
v -0.000000 0.934777 -0.746457
v 0.579454 0.221466 -0.770736
v 0.572474 -0.498187 -0.190937
v 0.170889 1.219819 -0.156998
v 0.612027 0.075881 0.380041
v -0.000000 -0.822706 0.366099
v -0.000000 1.308599 0.641145
v 0.000000 -0.602573 -0.188927
v 0.000000 1.251180 -0.075051
v 0.163608 -0.823678 -1.530231
v 0.383148 -0.153811 -1.064345
v 0.121489 0.688753 -0.993136
v -0.000000 0.488392 -1.147127
v 0.000000 -0.664518 -0.979294
v 0.315149 -0.447177 -0.931766
v 0.880362 -0.045656 -0.250751
v 0.882953 -0.232222 -0.324169
v 0.883036 -0.410748 -0.256968
v 0.864070 -0.322257 0.079568
v 0.869319 -0.425847 -0.089943
v 0.879657 0.077414 -0.081240
v 0.881682 0.037323 0.085722
v 0.879684 -0.123906 0.152331
v 1.283668 -0.465897 -0.451215
v 0.968034 -0.188542 -0.220827
v 0.952844 -0.314674 -0.255174
v 0.965497 -0.438012 -0.225081
v 1.036210 -0.399215 -0.069508
v 0.998476 -0.471141 -0.148176
v 1.005670 -0.139268 -0.142159
v 1.043854 -0.176976 -0.065254
v 1.056857 -0.280124 -0.035161
v 1.409527 -0.445397 -0.606519
v 1.261536 -0.642196 -0.470845
v 1.283348 -0.833652 -0.454771
v 1.389438 -0.847814 -0.368575
v 1.336327 -0.916407 -0.412409
v 1.336779 -0.395982 -0.407381
v 1.389758 -0.480060 -0.365019
v 1.411570 -0.665325 -0.348945
v 1.386960 -0.692516 -0.621654
v 1.405519 -1.096441 -0.608565
v 1.465598 -1.120049 -0.559356
v 1.446060 -1.195976 -0.600268
v 1.440597 -0.358423 -0.594637
v 1.479165 -0.469289 -0.551202
v 1.490038 -0.720598 -0.538640
v 1.454833 -0.735371 -0.598175
v 1.355469 -0.475659 -0.545070
v 1.405744 -0.821449 -0.619121
v 1.404392 -0.380555 -0.504083
v 1.454857 -0.494925 -0.464345
v 1.502241 -0.849835 -0.540943
v 1.457713 -0.806331 -0.605202
v 1.334585 -0.715475 -0.563465
v 1.354420 -0.975909 -0.548458
v 1.453799 -0.995174 -0.467734
v 1.403648 -1.088479 -0.508816
v 1.475251 -0.746937 -0.449295
v 1.457608 -0.775320 -0.602387
v 1.559240 -0.241308 -0.857823
v 1.568115 -0.636369 -0.861419
v 1.568817 -1.343677 -0.868541
v 1.566305 -1.043518 -0.874580
v 1.497437 -0.309299 -0.850225
v 1.480971 -0.601205 -0.863847
v 1.560939 -0.326250 -0.799251
v 1.575522 -0.622972 -0.787307
v 1.481165 -1.055632 -0.865252
v 1.499304 -1.267126 -0.853264
v 1.559154 -1.285283 -0.804072
v 1.576943 -1.077464 -0.787131
v 0.297187 -0.577266 -1.236350
v 0.223563 -0.819008 -1.197122
v 0.000000 -0.910685 -1.188289
v 0.000000 -0.226503 -1.302778
v 0.197404 -0.306326 -1.294109
v 0.122449 -0.952431 -1.511754
v 0.000000 -1.016649 -1.503227
v 0.119212 -0.820248 -2.079935
v 0.000000 -0.627880 -1.552791
v 0.108536 -0.686554 -1.547032
v 0.581922 -0.490356 0.536267
v 0.589902 -0.870453 0.652292
v -0.000000 -0.957727 0.651794
v 0.247306 1.171425 0.981741
v 0.576367 0.400906 0.599453
v 0.169892 1.112011 1.160237
v 0.297102 0.581116 1.178331
v 0.000000 1.086908 1.235787
v 0.000000 0.610106 1.230004
v 0.589561 -0.490866 1.054589
v 0.533823 -0.954665 1.109290
v 0.000000 -1.016398 1.168824
v 0.377178 -0.450911 1.394629
v 0.445191 -0.797478 1.687352
v 0.000000 -0.813739 1.804613
v 0.000000 -0.404691 1.497065
v 0.802178 0.095617 0.475191
v 0.738738 -0.430837 0.697625
v 0.763491 0.427011 0.736282
v 0.410227 0.578830 1.393631
v 0.000000 0.589524 1.530495
v 0.731094 -0.454735 1.102057
v 0.534011 -0.406166 1.564690
v 0.000000 -0.358704 1.696474
v 0.133817 -0.896267 -1.938936
v 0.082982 -1.091294 -1.795148
v 0.000000 -1.188477 -1.793283
v 0.000000 -0.897237 -1.951681
v 0.000000 -0.509452 -1.774762
v 0.095323 -0.593869 -1.783320
v 0.000000 -0.828275 -2.088010
v 0.000000 -0.553099 -2.140822
v 0.098610 -0.601057 -2.107627
v 0.038176 -1.003928 -2.464792
v 0.000000 -1.007963 -2.469464
v 0.000000 -0.857147 -2.487588
v 0.031579 -0.884342 -2.471455
v 0.133817 -1.071829 -2.016050
v 0.124880 -1.225110 -1.982661
v 0.000000 -1.280237 -2.027364
v 0.000000 -1.068492 -2.027714
v 0.039648 -1.142050 -2.294548
v 0.037000 -1.218930 -2.277802
v 0.000000 -1.246580 -2.300223
v 0.000000 -1.140376 -2.300399
v 0.529103 0.071550 0.231082
v 0.000000 0.031021 0.204678
v 0.503639 -0.548047 0.472745
v -0.000000 -0.561424 0.410044
v 0.000000 -0.608045 1.111465
v 0.491563 0.462335 0.473342
v 0.000000 0.460863 0.475872
v 0.000000 0.647667 1.077189
v 0.493171 -0.602267 1.011302
v 0.000000 -0.537973 1.405705
v 0.248801 0.645251 1.014525
v 0.305721 -0.575604 1.303512
v 0.237110 1.287813 0.312721
v 0.085420 1.567750 0.308653
v 0.588413 1.007928 0.862232
v 0.384646 0.866570 1.310979
v 0.000000 0.959232 1.428050
v 0.113230 1.241514 1.033710
v 0.053413 1.706386 1.316258
v -0.000000 1.282172 0.918726
v 0.080867 1.270111 0.952862
v 0.077653 1.212586 1.115739
v 0.069181 1.449001 1.110361
v 0.054122 1.812431 1.529471
v -0.000000 1.473822 1.040463
v 0.049213 1.466428 1.061316
v 0.047244 1.431556 1.159510
v 0.045242 1.792422 1.762183
v 0.037861 1.735952 1.290352
v 0.036347 1.677281 1.341730
v 0.043545 1.665319 1.977734
v 0.038347 1.848409 1.512273
v 0.036809 1.777023 1.546373
v 0.043237 1.331985 2.155043
v 0.031927 1.826034 1.764006
v 0.030629 1.759352 1.760371
v 0.040564 1.070673 2.266775
v 0.030686 1.689534 1.999420
v 0.029433 1.641506 1.956383
v 0.100829 0.625851 2.302645
v -0.000000 1.317587 2.112907
v 0.030429 1.343096 2.185453
v 0.029212 1.321507 2.124976
v 0.027941 1.073632 2.296402
v 0.027780 1.067312 2.236715
v 0.071966 0.624798 2.376506
v 0.068681 0.626854 2.230422
v -0.000000 1.022163 2.186180
v 0.058494 1.023018 2.209994
v 0.062103 1.027501 2.333551
v 0.086676 1.025314 2.270637
v -0.000000 0.823122 2.086840
v 0.133953 0.823412 2.141328
v 0.194615 0.824349 2.278322
v -0.000000 0.825906 2.477552
v 0.139341 0.825380 2.417605
v -0.000000 1.200801 1.149129
v -0.000000 1.424511 1.179311
v 0.000000 1.748660 1.279188
v 0.000000 1.665686 1.351847
v -0.000000 1.863881 1.504851
v -0.000000 1.762924 1.553076
v 0.000000 1.840499 1.764770
v 0.000000 1.746196 1.759629
v 0.000000 1.699966 2.008737
v 0.000000 1.632044 1.947874
v -0.000000 1.347897 2.198531
v -0.000000 1.028360 2.360883
v -0.000000 1.074533 2.308819
v -0.000000 1.066102 2.224436
v -0.000000 0.568052 2.311277
v -0.000000 0.624367 2.408449
v -0.000000 0.627303 2.201797
v -0.615763 -0.708355 0.293838
v -0.174984 1.303069 0.553777
v -0.477712 -0.366833 -0.683911
v -0.121489 0.892566 -0.788781
v -0.579454 0.221466 -0.770736
v -0.572473 -0.498187 -0.190937
v -0.170889 1.219819 -0.156998
v -0.612027 0.075881 0.380041
v -0.163608 -0.823678 -1.530231
v -0.383148 -0.153811 -1.064345
v -0.121489 0.688753 -0.993136
v -0.315149 -0.447177 -0.931766
v -0.880362 -0.045656 -0.250751
v -0.882953 -0.232222 -0.324169
v -0.883036 -0.410748 -0.256968
v -0.864070 -0.322257 0.079568
v -0.869319 -0.425847 -0.089943
v -0.879657 0.077414 -0.081240
v -0.881682 0.037323 0.085722
v -0.879684 -0.123906 0.152331
v -1.283668 -0.465897 -0.451215
v -0.968034 -0.188541 -0.220827
v -0.952844 -0.314674 -0.255174
v -0.965497 -0.438012 -0.225081
v -1.036210 -0.399215 -0.069508
v -0.998476 -0.471141 -0.148176
v -1.005670 -0.139268 -0.142159
v -1.043854 -0.176976 -0.065254
v -1.056857 -0.280124 -0.035161
v -1.409527 -0.445397 -0.606520
v -1.261536 -0.642195 -0.470845
v -1.283348 -0.833652 -0.454771
v -1.389438 -0.847814 -0.368575
v -1.336327 -0.916407 -0.412409
v -1.336779 -0.395982 -0.407381
v -1.389758 -0.480060 -0.365019
v -1.411570 -0.665325 -0.348945
v -1.386960 -0.692515 -0.621654
v -1.405519 -1.096441 -0.608566
v -1.465598 -1.120049 -0.559356
v -1.446060 -1.195976 -0.600268
v -1.440597 -0.358423 -0.594637
v -1.479165 -0.469289 -0.551202
v -1.490038 -0.720598 -0.538640
v -1.454833 -0.735371 -0.598175
v -1.355469 -0.475659 -0.545070
v -1.405744 -0.821449 -0.619121
v -1.404392 -0.380555 -0.504083
v -1.454857 -0.494924 -0.464345
v -1.502241 -0.849835 -0.540943
v -1.457713 -0.806331 -0.605202
v -1.334585 -0.715474 -0.563465
v -1.354420 -0.975909 -0.548458
v -1.453799 -0.995174 -0.467734
v -1.403648 -1.088479 -0.508817
v -1.475251 -0.746937 -0.449295
v -1.457608 -0.775320 -0.602387
v -1.559240 -0.241308 -0.857823
v -1.568115 -0.636369 -0.861419
v -1.568817 -1.343677 -0.868541
v -1.566305 -1.043518 -0.874580
v -1.497437 -0.309298 -0.850225
v -1.480971 -0.601205 -0.863847
v -1.560939 -0.326250 -0.799251
v -1.575522 -0.622972 -0.787307
v -1.481165 -1.055632 -0.865252
v -1.499304 -1.267126 -0.853264
v -1.559154 -1.285283 -0.804072
v -1.576943 -1.077464 -0.787131
v -0.297187 -0.577266 -1.236350
v -0.223563 -0.819008 -1.197122
v -0.197404 -0.306326 -1.294109
v -0.122449 -0.952431 -1.511754
v -0.119212 -0.820248 -2.079935
v -0.108536 -0.686554 -1.547032
v -0.581922 -0.490356 0.536267
v -0.589902 -0.870453 0.652292
v -0.247306 1.171425 0.981741
v -0.576367 0.400906 0.599453
v -0.169892 1.112011 1.160237
v -0.297102 0.581116 1.178331
v -0.589561 -0.490865 1.054589
v -0.533823 -0.954665 1.109290
v -0.377178 -0.450911 1.394629
v -0.445191 -0.797478 1.687352
v -0.802178 0.095617 0.475191
v -0.738738 -0.430837 0.697625
v -0.763491 0.427011 0.736282
v -0.410227 0.578830 1.393631
v -0.731094 -0.454735 1.102057
v -0.534011 -0.406166 1.564690
v -0.133817 -0.896267 -1.938936
v -0.082982 -1.091294 -1.795148
v -0.095323 -0.593869 -1.783320
v -0.098610 -0.601057 -2.107627
v -0.038176 -1.003928 -2.464792
v -0.031579 -0.884342 -2.471455
v -0.133817 -1.071829 -2.016050
v -0.124880 -1.225110 -1.982661
v -0.039648 -1.142050 -2.294548
v -0.037000 -1.218930 -2.277802
v -0.529103 0.071550 0.231082
v -0.503639 -0.548047 0.472745
v -0.491563 0.462335 0.473342
v -0.493171 -0.602267 1.011302
v -0.248801 0.645251 1.014525
v -0.305721 -0.575604 1.303512
v -0.237110 1.287813 0.312721
v -0.588413 1.007928 0.862232
v -0.384646 0.866570 1.310979
v -0.113230 1.241514 1.033710
v -0.053413 1.706386 1.316258
v -0.080867 1.270111 0.952862
v -0.077653 1.212586 1.115739
v -0.069181 1.449001 1.110361
v -0.054122 1.812431 1.529471
v -0.049213 1.466428 1.061316
v -0.047244 1.431556 1.159510
v -0.045242 1.792422 1.762183
v -0.037861 1.735952 1.290352
v -0.036347 1.677281 1.341730
v -0.043545 1.665319 1.977734
v -0.038347 1.848409 1.512273
v -0.036809 1.777023 1.546373
v -0.043237 1.331985 2.155043
v -0.031927 1.826034 1.764006
v -0.030629 1.759352 1.760371
v -0.040564 1.070673 2.266775
v -0.030686 1.689534 1.999420
v -0.029433 1.641506 1.956383
v -0.100829 0.625851 2.302645
v -0.030429 1.343096 2.185453
v -0.029212 1.321507 2.124976
v -0.027941 1.073632 2.296402
v -0.027780 1.067312 2.236715
v -0.071966 0.624798 2.376506
v -0.068681 0.626854 2.230422
v -0.058494 1.023018 2.209994
v -0.062103 1.027501 2.333551
v -0.086676 1.025314 2.270637
v -0.133953 0.823412 2.141328
v -0.194615 0.824349 2.278322
v -0.139341 0.825380 2.417605
v 0.241673 1.144107 -0.354836
v 0.667376 0.978995 0.459792
v 0.176647 1.228125 0.812260
v 0.000000 1.278885 0.746065
v -0.241673 1.144107 -0.354836
v -0.667376 0.978995 0.459792
v -0.176647 1.228125 0.812260
v 0.113277 1.405059 0.310015
v 0.056242 1.715202 0.212358
v 0.000000 1.350678 0.099576
v -0.000000 1.471661 0.567746
v -0.113277 1.405059 0.310015
v 0.083596 1.368396 0.168138
v 0.083596 1.453943 0.499184
v -0.083596 1.368396 0.168138
v -0.083596 1.453943 0.499184
v 0.000000 1.511377 0.158010
v 0.000000 1.636792 0.493150
v -0.085420 1.567750 0.308653
v 0.063038 1.529744 0.207091
v 0.063038 1.618426 0.444070
v -0.063038 1.529744 0.207091
v -0.063038 1.618426 0.444070
v 0.000000 1.776812 0.187615
v 0.000000 1.712394 0.110433
v 0.000000 1.808922 0.289412
v -0.056242 1.715202 0.212358
v 0.041506 1.680694 0.148374
v 0.041506 1.761213 0.297669
v -0.041506 1.680694 0.148374
v -0.041506 1.761213 0.297669
v 0.604456 0.767078 -0.625489
v 0.698213 0.940569 -0.100862
v -0.604456 0.767078 -0.625489
v -0.698213 0.940569 -0.100862
v 0.174984 1.276371 0.131929
v 0.000000 1.270841 0.044562
v -0.174984 1.276371 0.131929
v -0.000000 1.186962 -0.545851
v -0.000000 1.523478 -0.617756
v 0.114999 1.259218 -0.344889
v -0.114999 1.259218 -0.344889
v 0.000000 1.342290 -0.169786
v 0.081316 1.208125 -0.490550
v -0.081316 1.208125 -0.490550
v 0.081316 1.310311 -0.223536
v -0.081316 1.310311 -0.223536
v 0.000000 1.322826 -0.541277
v 0.080234 1.384055 -0.408494
v -0.080234 1.384055 -0.408494
v 0.000000 1.469485 -0.278587
v 0.056734 1.340548 -0.504814
v -0.056734 1.340548 -0.504814
v 0.056734 1.426118 -0.328755
v -0.056734 1.426118 -0.328755
v -0.000000 1.569144 -0.568001
v 0.048312 1.537538 -0.526230
v -0.048312 1.537538 -0.526230
v -0.000000 1.610408 -0.480727
v 0.034161 1.504381 -0.581899
v -0.034161 1.504381 -0.581899
v 0.034161 1.568669 -0.480562
v -0.034161 1.568669 -0.480562
v 0.171811 0.790660 -0.890959
v 0.394291 0.410684 -1.060324
v -0.000000 0.646542 -1.035460
v -0.171811 0.790660 -0.890959
v -0.394291 0.410684 -1.060324
v -0.000000 1.037035 -0.634620
v 0.170889 1.068396 -0.552673
v -0.170889 1.068396 -0.552673
v -0.000000 1.139501 -1.205274
v 0.084683 0.915680 -0.936855
v -0.000000 0.814895 -1.050062
v -0.084683 0.915680 -0.936855
v -0.000000 1.016465 -0.823649
v 0.059880 0.844414 -1.016904
v -0.059880 0.844414 -1.016904
v 0.059880 0.986946 -0.856806
v -0.059880 0.986946 -0.856806
v 0.064877 1.035266 -1.042113
v -0.000000 0.964144 -1.135394
v -0.064877 1.035266 -1.042113
v -0.000000 1.106387 -0.948831
v 0.045875 0.984975 -1.108073
v -0.045875 0.984975 -1.108073
v 0.045875 1.085557 -0.976153
v -0.045875 1.085557 -0.976153
v 0.046276 1.095379 -1.160663
v -0.000000 1.066682 -1.244852
v -0.046276 1.095379 -1.160663
v -0.000000 1.179418 -1.131816
v 0.032722 1.055520 -1.200628
v -0.032722 1.055520 -1.200628
v 0.032722 1.135237 -1.120699
v -0.032722 1.135237 -1.120699
v 0.737483 -0.462017 -0.140440
v 0.694449 -0.388791 -0.470439
v 0.808898 0.508992 -0.091051
v 0.793671 0.508159 0.272757
v 0.747997 -0.005378 -0.547452
v 0.863672 -0.014197 0.313761
v 0.759867 0.360711 -0.438120
v 0.757652 -0.515973 0.186703
v 0.733608 0.079116 0.561473
v 0.675402 -0.352146 0.741583
v 0.715778 0.345844 0.781876
v 0.387343 0.479671 1.376868
v 0.000000 0.489890 1.499783
v 0.687113 -0.363213 1.092587
v 0.509477 -0.317122 1.519886
v 0.000000 -0.272820 1.641768
v 0.549502 0.065441 0.471661
v 0.519775 -0.421086 0.601685
v 0.533056 0.325628 0.659447
v 0.277968 0.481539 1.175321
v 0.000000 0.508398 1.215969
v 0.550449 -0.397439 1.048572
v 0.359203 -0.359403 1.359082
v 0.000000 -0.316254 1.453426
v -0.733608 0.079116 0.561473
v -0.675402 -0.352146 0.741582
v -0.715778 0.345844 0.781876
v -0.387343 0.479671 1.376868
v -0.687113 -0.363212 1.092587
v -0.509477 -0.317122 1.519886
v -0.549502 0.065441 0.471661
v -0.519775 -0.421086 0.601685
v -0.533056 0.325629 0.659447
v -0.277968 0.481539 1.175321
v -0.550449 -0.397439 1.048572
v -0.359203 -0.359403 1.359082
v -0.737483 -0.462017 -0.140440
v -0.694449 -0.388791 -0.470439
v -0.808898 0.508992 -0.091051
v -0.793671 0.508159 0.272757
v -0.747997 -0.005378 -0.547452
v -0.863672 -0.014197 0.313761
v -0.759867 0.360711 -0.438120
v -0.757652 -0.515973 0.186703
v 0.363142 1.101740 1.013455
v 0.455599 1.101740 0.871930
v 0.442969 0.962149 1.065605
v 0.535426 0.962149 0.924080
v 0.285834 1.069358 0.985075
v 0.326813 1.092530 1.004449
v 0.384644 1.118875 0.986440
v 0.413428 1.127482 0.945343
v 0.439499 1.118875 0.902474
v 0.432756 1.092530 0.842280
v 0.398551 1.069358 0.812537
v 0.487098 1.080308 0.877781
v 0.518447 1.042392 0.890864
v 0.534459 0.997489 0.908722
v 0.524227 0.932579 0.902037
v 0.495872 0.899178 0.876115
v 0.530970 0.958923 0.962231
v 0.510749 0.957302 1.008922
v 0.476116 0.958923 1.046198
v 0.418284 0.932579 1.064206
v 0.383154 0.899178 1.048653
v 0.428517 0.997489 1.070890
v 0.405730 1.042392 1.063402
v 0.381155 1.080308 1.039950
v 0.297640 1.093404 0.936970
v 0.340376 1.116175 0.961459
v 0.323837 1.101455 0.886815
v 0.367373 1.125170 0.915256
v 0.359242 1.093404 0.842675
v 0.398837 1.116175 0.871971
v 0.436544 1.030771 0.802573
v 0.469962 1.058547 0.835074
v 0.468471 0.984268 0.811784
v 0.502070 1.016034 0.845380
v 0.489732 0.937765 0.837320
v 0.520438 0.970282 0.868050
v 0.484065 0.875132 0.924220
v 0.515224 0.912654 0.948005
v 0.457868 0.867081 0.974376
v 0.492196 0.906898 0.996801
v 0.422463 0.875132 1.018515
v 0.456762 0.912654 1.037493
v 0.345161 0.937765 1.058617
v 0.385638 0.970282 1.074390
v 0.313235 0.984268 1.049406
v 0.357499 1.016034 1.066677
v 0.291974 1.030771 1.023870
v 0.335162 1.058547 1.041415
v 0.530513 1.009646 0.957994
v 0.513020 1.058817 0.943136
v 0.480037 1.097912 0.925018
v 0.508813 1.012314 1.007657
v 0.488960 1.064317 0.994687
v 0.455626 1.105321 0.972911
v 0.472052 1.009646 1.047482
v 0.451418 1.058817 1.037432
v 0.421576 1.097912 1.014506
v -0.363142 1.101740 1.013455
v -0.455599 1.101740 0.871930
v -0.442969 0.962149 1.065605
v -0.535426 0.962149 0.924080
v -0.285834 1.069358 0.985075
v -0.326813 1.092530 1.004449
v -0.384644 1.118875 0.986441
v -0.413428 1.127482 0.945344
v -0.439499 1.118875 0.902474
v -0.432756 1.092530 0.842280
v -0.398551 1.069358 0.812537
v -0.487098 1.080308 0.877781
v -0.518447 1.042392 0.890864
v -0.534459 0.997489 0.908722
v -0.524227 0.932579 0.902037
v -0.495871 0.899178 0.876115
v -0.530970 0.958923 0.962231
v -0.510749 0.957302 1.008922
v -0.476116 0.958923 1.046198
v -0.418284 0.932579 1.064206
v -0.383154 0.899178 1.048653
v -0.428516 0.997489 1.070890
v -0.405730 1.042392 1.063402
v -0.381155 1.080308 1.039950
v -0.297640 1.093404 0.936970
v -0.340375 1.116175 0.961459
v -0.323837 1.101455 0.886815
v -0.367373 1.125170 0.915256
v -0.359242 1.093404 0.842675
v -0.398837 1.116175 0.871971
v -0.436544 1.030771 0.802573
v -0.469962 1.058547 0.835074
v -0.468471 0.984268 0.811784
v -0.502070 1.016034 0.845380
v -0.489732 0.937765 0.837320
v -0.520438 0.970282 0.868050
v -0.484065 0.875132 0.924220
v -0.515224 0.912654 0.948005
v -0.457868 0.867081 0.974376
v -0.492196 0.906898 0.996801
v -0.422463 0.875132 1.018515
v -0.456762 0.912654 1.037493
v -0.345161 0.937765 1.058617
v -0.385638 0.970282 1.074390
v -0.313235 0.984268 1.049406
v -0.357499 1.016034 1.066677
v -0.291974 1.030771 1.023870
v -0.335162 1.058547 1.041415
v -0.530513 1.009647 0.957994
v -0.513020 1.058817 0.943136
v -0.480037 1.097912 0.925018
v -0.508813 1.012314 1.007657
v -0.488960 1.064317 0.994687
v -0.455626 1.105321 0.972911
v -0.472052 1.009647 1.047482
v -0.451418 1.058817 1.037432
v -0.421576 1.097912 1.014506
v -0.663033 -0.295854 0.433661
v 0.644320 -0.295854 0.433661
v -0.564342 -0.664140 0.520537
v 0.545393 -0.664140 0.520537
v 0.001335 0.147438 1.475490
v 0.001974 -0.451489 1.649256
v 0.382700 0.134832 1.292514
v 0.410110 -0.519846 1.536632
v -0.420983 -0.519846 1.536632
v -0.393465 0.134832 1.292514
v 0.560074 0.009764 0.853522
v 0.600249 -0.610634 1.053530
v -0.623019 -0.610634 1.053530
v -0.582347 0.009764 0.853522
v 0.234385 -0.491036 1.617622
v 0.218370 0.200023 1.441878
v -0.229972 0.200023 1.441878
v -0.245685 -0.491036 1.617622
v -0.747406 -0.016820 0.366150
v 0.725191 -0.016820 0.366150
v -0.640954 0.539335 0.450229
v 0.619658 0.539335 0.450229
v 0.001288 -0.011062 1.453891
v -0.000037 0.615651 1.436068
v 0.443425 0.008242 1.292566
v 0.378252 0.636376 1.273252
v -0.392063 0.636376 1.273252
v -0.456425 0.008241 1.292566
v 0.662782 -0.205879 0.808311
v 0.514114 0.587251 0.933396
v -0.538951 0.587251 0.933396
v -0.689125 -0.205879 0.808311
v 0.215378 0.670561 1.401670
v 0.252909 -0.038578 1.409461
v -0.266878 -0.038578 1.409461
v -0.229585 0.670561 1.401670
vn 0.5999 -0.7622 -0.2432
vn 0.5622 0.7744 0.2901
vn 0.6258 -0.6818 -0.3787
vn 0.5537 0.7625 -0.3346
vn -0.0000 -0.9922 0.1247
vn -0.0000 0.9902 -0.1400
vn 0.8461 -0.0143 -0.5329
vn 0.2770 -0.9145 -0.2948
vn 0.4870 0.8729 -0.0289
vn -0.9921 -0.0435 0.1181
vn -0.0000 -0.9153 -0.4027
vn -0.0000 0.8452 0.5344
vn -0.0000 -0.9517 -0.3072
vn -0.0000 0.9926 0.1215
vn 0.9791 -0.0824 -0.1857
vn 0.8765 -0.0989 -0.4712
vn 0.4542 0.3745 -0.8083
vn -0.0000 0.3835 -0.9236
vn -0.0000 -0.7582 0.6520
vn 0.7794 -0.6048 0.1635
vn 0.8756 0.2577 -0.4086
vn 0.7460 -0.0403 -0.6647
vn 0.2998 -0.7639 -0.5715
vn 0.7181 -0.5003 0.4838
vn 0.2440 -0.9572 0.1558
vn 0.9435 0.3149 -0.1031
vn 0.9582 0.2409 0.1543
vn 0.9012 -0.0540 0.4300
vn -0.5040 0.4316 -0.7481
vn 0.4236 0.4800 -0.7683
vn 0.0280 -0.0212 -0.9994
vn -0.5442 -0.6630 -0.5141
vn 0.2935 -0.5173 0.8039
vn -0.3561 -0.8471 0.3946
vn 0.7180 0.6553 -0.2347
vn 0.8212 0.4359 0.3682
vn 0.6791 -0.0354 0.7332
vn -0.8881 0.2948 -0.3526
vn -0.7196 -0.0079 -0.6943
vn -0.8798 -0.3722 -0.2956
vn 0.3745 -0.3912 0.8407
vn -0.5143 -0.6364 0.5749
vn 0.3383 0.9254 -0.1708
vn 0.7833 0.3631 0.5046
vn 0.7199 -0.0327 0.6933
vn -0.6626 -0.3357 -0.6695
vn -0.9463 -0.2769 -0.1671
vn 0.6790 -0.3752 0.6310
vn -0.2232 -0.8346 0.5035
vn -0.0870 0.9552 0.2830
vn 0.8938 0.2505 0.3721
vn 0.9680 -0.2389 0.0775
vn 0.3310 -0.7982 -0.5033
vn -0.7709 0.3186 -0.5515
vn -0.5022 0.2958 -0.8126
vn 0.0680 0.9956 0.0652
vn 0.8691 0.2821 0.4063
vn 0.9833 0.1380 0.1188
vn 0.5451 0.5766 -0.6087
vn -0.7155 -0.0357 -0.6977
vn -0.9066 -0.2643 -0.3289
vn 0.6100 -0.3520 0.7099
vn -0.4266 -0.6659 0.6120
vn 0.9300 -0.0201 0.3671
vn 0.5847 0.1088 -0.8039
vn 0.2955 0.7919 -0.5344
vn 0.4744 -0.5701 -0.6708
vn 0.3037 -0.7280 -0.6147
vn 0.5458 0.4076 -0.7320
vn -0.6826 0.2913 -0.6702
vn -0.5743 -0.2879 -0.7663
vn 0.9405 0.2119 0.2655
vn 0.9446 -0.3161 0.0880
vn -0.5899 0.2385 -0.7714
vn -0.7376 -0.3037 -0.6031
vn 0.8876 -0.2871 0.3603
vn 0.9865 0.0913 0.1359
vn 0.9569 -0.0904 -0.2761
vn 0.7218 -0.6171 0.3133
vn -0.0000 -0.8480 0.5300
vn -0.0000 0.3500 -0.9367
vn 0.5499 0.2422 -0.7994
vn 0.7800 -0.6122 0.1297
vn -0.0000 -0.9300 0.3674
vn 0.8658 -0.4803 -0.1404
vn -0.0000 0.9236 -0.3834
vn 0.8259 0.4421 -0.3500
vn -0.9606 0.2592 0.1003
vn 0.6265 -0.7533 -0.2003
vn -0.0000 -0.9612 -0.2758
vn 0.5118 0.8150 0.2716
vn -0.9405 -0.3191 -0.1167
vn 0.4127 0.7063 0.5752
vn -0.5743 -0.4618 -0.6760
vn -0.0000 0.7096 0.7046
vn -0.0000 -0.5512 -0.8344
vn -0.9505 0.1517 -0.2712
vn 0.5991 -0.7914 0.1220
vn -0.0000 -0.9957 0.0929
vn -0.5796 0.1371 -0.8033
vn 0.5336 -0.4568 0.7118
vn -0.0000 -0.4620 0.8869
vn -0.0000 0.0641 -0.9979
vn 0.9316 -0.0206 0.3629
vn 0.9954 -0.0567 0.0777
vn 0.9491 0.0096 0.3147
vn 0.6394 0.0018 0.7689
vn -0.0000 0.0132 0.9999
vn 0.9814 0.0730 0.1777
vn 0.7000 0.2214 0.6789
vn -0.0000 0.3829 0.9238
vn 0.9242 -0.1175 -0.3633
vn 0.8239 -0.4997 0.2674
vn -0.0000 -0.8748 0.4845
vn -0.0000 -0.3391 -0.9407
vn -0.0000 0.9865 0.1640
vn 0.8160 0.5736 0.0718
vn -0.0000 -1.0000 -0.0037
vn -0.0000 0.9097 -0.4153
vn 0.8337 0.5042 -0.2251
vn 0.6256 -0.6798 -0.3828
vn -0.0000 -0.8624 -0.5063
vn -0.0000 0.4768 -0.8790
vn 0.6968 0.1742 -0.6958
vn 0.8813 0.3150 -0.3522
vn 0.8287 -0.5451 0.1268
vn -0.0000 -0.9944 0.1061
vn -0.0000 0.7686 -0.6397
vn 0.6036 0.4372 -0.6668
vn 0.7080 -0.4565 -0.5389
vn -0.0000 -0.7153 -0.6989
vn -0.0000 0.5739 -0.8189
vn -0.4725 -0.0992 0.8757
vn -0.0000 -0.0797 0.9968
vn -0.4401 0.7277 0.5262
vn -0.0000 0.7804 0.6253
vn -0.0000 0.9984 -0.0570
vn -0.4374 -0.7409 0.5096
vn -0.0000 -0.7872 0.6168
vn -0.0000 -0.9994 -0.0347
vn -0.4107 0.9040 -0.1184
vn -0.0000 0.8151 -0.5793
vn -0.2730 -0.9617 0.0235
vn -0.2487 0.8501 -0.4642
vn 0.6350 0.7718 -0.0333
vn 0.9859 0.1593 -0.0509
vn 0.7691 0.5857 0.2560
vn 0.5996 0.4433 0.6663
vn -0.0000 0.5536 0.8328
vn 0.7882 0.5735 0.2234
vn 0.9989 0.0468 -0.0084
vn -0.0000 0.9009 -0.4340
vn 0.5738 0.7803 -0.2487
vn 0.5748 0.3797 0.7249
vn 0.9908 0.1321 0.0302
vn 0.9983 0.0541 0.0234
vn -0.0000 0.5937 -0.8047
vn 0.6934 0.4585 -0.5559
vn 0.7344 -0.2159 0.6435
vn 0.9985 0.0325 0.0440
vn 0.6941 0.5709 -0.4385
vn 0.7347 -0.5141 0.4426
vn 0.9988 0.0289 0.0403
vn 0.6915 0.7109 -0.1285
vn 0.7334 -0.6664 0.1344
vn 1.0000 -0.0060 -0.0026
vn 0.6823 0.6941 0.2296
vn 0.7200 -0.6638 -0.2021
vn 0.9037 0.4282 -0.0022
vn 0.6896 0.5034 0.5206
vn 0.7334 -0.4694 -0.4918
vn 0.7343 -0.6788 -0.0032
vn -0.0000 -0.4366 -0.8997
vn 0.7101 0.2982 0.6379
vn 0.7031 -0.3110 -0.6395
vn 0.6025 0.5528 0.5757
vn 0.6960 0.2652 -0.6673
vn 0.5660 -0.6063 0.5587
vn 0.5233 -0.6726 -0.5233
vn -0.0000 0.5420 -0.8403
vn 0.5704 0.5517 -0.6085
vn 0.5820 0.6045 0.5439
vn 0.8130 0.5810 -0.0381
vn -0.0000 -0.0318 -0.9995
vn 0.6911 -0.0176 -0.7225
vn 0.9993 0.0216 -0.0317
vn -0.0000 0.0877 0.9961
vn 0.7232 0.0667 0.6874
vn -0.0000 0.3136 0.9496
vn -0.0000 -0.3727 0.9280
vn -0.0000 0.7863 -0.6178
vn -0.0000 -0.7656 0.6434
vn -0.0000 0.9787 -0.2054
vn -0.0000 -0.9854 0.1703
vn -0.0000 0.9570 0.2901
vn -0.0000 -0.9484 -0.3172
vn -0.0000 0.7004 0.7137
vn -0.0000 -0.6830 -0.7304
vn -0.0000 0.4242 0.9056
vn -0.0000 0.6155 0.7881
vn -0.0000 0.6070 0.7947
vn -0.0000 0.1934 -0.9811
vn -0.0000 -0.9999 0.0135
vn -0.0000 -0.6357 0.7719
vn -0.0000 -0.7161 -0.6980
vn -0.5999 -0.7622 -0.2432
vn -0.5622 0.7744 0.2901
vn -0.6258 -0.6818 -0.3787
vn -0.5537 0.7625 -0.3346
vn -0.8461 -0.0143 -0.5329
vn -0.2770 -0.9145 -0.2948
vn -0.4870 0.8729 -0.0289
vn 0.9921 -0.0435 0.1181
vn -0.9791 -0.0824 -0.1857
vn -0.8765 -0.0989 -0.4712
vn -0.4542 0.3745 -0.8083
vn -0.7794 -0.6048 0.1635
vn -0.8756 0.2577 -0.4086
vn -0.7460 -0.0403 -0.6647
vn -0.2998 -0.7639 -0.5715
vn -0.7181 -0.5003 0.4838
vn -0.2440 -0.9572 0.1558
vn -0.9435 0.3149 -0.1031
vn -0.9582 0.2409 0.1543
vn -0.9012 -0.0540 0.4300
vn 0.5040 0.4316 -0.7481
vn -0.4236 0.4800 -0.7683
vn -0.0280 -0.0212 -0.9994
vn 0.5442 -0.6630 -0.5141
vn -0.2935 -0.5173 0.8039
vn 0.3561 -0.8471 0.3946
vn -0.7180 0.6553 -0.2347
vn -0.8212 0.4359 0.3682
vn -0.6791 -0.0354 0.7332
vn 0.8881 0.2948 -0.3526
vn 0.7196 -0.0079 -0.6943
vn 0.8798 -0.3722 -0.2956
vn -0.3745 -0.3912 0.8407
vn 0.5143 -0.6364 0.5749
vn -0.3383 0.9254 -0.1708
vn -0.7833 0.3631 0.5046
vn -0.7199 -0.0327 0.6933
vn 0.6626 -0.3357 -0.6695
vn 0.9463 -0.2769 -0.1671
vn -0.6790 -0.3752 0.6310
vn 0.2232 -0.8346 0.5035
vn 0.0870 0.9552 0.2830
vn -0.8938 0.2505 0.3721
vn -0.9680 -0.2389 0.0775
vn -0.3310 -0.7982 -0.5033
vn 0.7709 0.3186 -0.5515
vn 0.5022 0.2958 -0.8126
vn -0.0680 0.9956 0.0652
vn -0.8691 0.2821 0.4063
vn -0.9833 0.1380 0.1188
vn -0.5451 0.5766 -0.6087
vn 0.7155 -0.0357 -0.6977
vn 0.9066 -0.2643 -0.3289
vn -0.6100 -0.3520 0.7099
vn 0.4266 -0.6659 0.6120
vn -0.9300 -0.0201 0.3671
vn -0.5847 0.1088 -0.8039
vn -0.2955 0.7919 -0.5344
vn -0.4744 -0.5701 -0.6708
vn -0.3037 -0.7280 -0.6147
vn -0.5458 0.4076 -0.7320
vn 0.6826 0.2913 -0.6702
vn 0.5743 -0.2879 -0.7663
vn -0.9405 0.2119 0.2655
vn -0.9446 -0.3161 0.0880
vn 0.5899 0.2385 -0.7714
vn 0.7376 -0.3037 -0.6031
vn -0.8876 -0.2871 0.3603
vn -0.9865 0.0913 0.1359
vn -0.9569 -0.0904 -0.2761
vn -0.7218 -0.6171 0.3133
vn -0.5499 0.2422 -0.7994
vn -0.7800 -0.6122 0.1297
vn -0.8658 -0.4803 -0.1404
vn -0.8259 0.4421 -0.3500
vn 0.9606 0.2592 0.1003
vn -0.6265 -0.7533 -0.2003
vn -0.5118 0.8150 0.2716
vn 0.9405 -0.3191 -0.1167
vn -0.4127 0.7063 0.5752
vn 0.5743 -0.4618 -0.6760
vn 0.9505 0.1517 -0.2712
vn -0.5991 -0.7914 0.1220
vn 0.5796 0.1371 -0.8033
vn -0.5336 -0.4568 0.7118
vn -0.9316 -0.0206 0.3629
vn -0.9954 -0.0567 0.0777
vn -0.9491 0.0096 0.3147
vn -0.6394 0.0018 0.7689
vn -0.9814 0.0730 0.1777
vn -0.7000 0.2214 0.6789
vn -0.9242 -0.1175 -0.3633
vn -0.8239 -0.4997 0.2674
vn -0.8160 0.5736 0.0718
vn -0.8337 0.5042 -0.2251
vn -0.6256 -0.6798 -0.3828
vn -0.6968 0.1742 -0.6958
vn -0.8813 0.3150 -0.3522
vn -0.8287 -0.5451 0.1268
vn -0.6036 0.4372 -0.6668
vn -0.7080 -0.4565 -0.5389
vn 0.4725 -0.0992 0.8757
vn 0.4401 0.7277 0.5262
vn 0.4374 -0.7409 0.5096
vn 0.4107 0.9040 -0.1184
vn 0.2730 -0.9617 0.0235
vn 0.2487 0.8501 -0.4642
vn -0.6350 0.7718 -0.0333
vn -0.7691 0.5857 0.2560
vn -0.5996 0.4433 0.6663
vn -0.7882 0.5735 0.2234
vn -0.9989 0.0468 -0.0084
vn -0.5738 0.7803 -0.2487
vn -0.5748 0.3797 0.7249
vn -0.9908 0.1321 0.0302
vn -0.9983 0.0541 0.0234
vn -0.6934 0.4585 -0.5559
vn -0.7344 -0.2159 0.6435
vn -0.9985 0.0325 0.0440
vn -0.6941 0.5709 -0.4385
vn -0.7347 -0.5141 0.4426
vn -0.9988 0.0289 0.0403
vn -0.6915 0.7109 -0.1285
vn -0.7334 -0.6664 0.1344
vn -1.0000 -0.0060 -0.0026
vn -0.6823 0.6941 0.2296
vn -0.7200 -0.6638 -0.2021
vn -0.9037 0.4282 -0.0022
vn -0.6896 0.5034 0.5206
vn -0.7334 -0.4694 -0.4918
vn -0.7343 -0.6788 -0.0032
vn -0.7101 0.2982 0.6379
vn -0.7031 -0.3110 -0.6395
vn -0.6025 0.5528 0.5757
vn -0.6960 0.2652 -0.6673
vn -0.5660 -0.6063 0.5587
vn -0.5233 -0.6726 -0.5233
vn -0.5704 0.5517 -0.6085
vn -0.5820 0.6045 0.5439
vn -0.8130 0.5810 -0.0381
vn -0.6911 -0.0176 -0.7225
vn -0.9993 0.0216 -0.0317
vn -0.7232 0.0667 0.6874
vn 0.5716 0.7660 -0.2942
vn 0.8243 0.5632 0.0568
vn 0.4007 0.9110 0.0976
vn -0.0000 0.9887 0.1500
vn -0.5716 0.7660 -0.2942
vn -0.8243 0.5632 0.0568
vn -0.4007 0.9110 0.0976
vn 0.8833 0.4571 -0.1043
vn 0.9128 0.3496 -0.2114
vn -0.0000 0.5353 -0.8447
vn -0.0000 0.4699 0.8827
vn -0.8833 0.4571 -0.1043
vn 0.6471 0.4998 -0.5758
vn 0.7735 0.4325 0.4632
vn -0.6471 0.4998 -0.5758
vn -0.7735 0.4325 0.4632
vn -0.0000 0.0940 -0.9956
vn -0.0000 0.5845 0.8114
vn -0.9859 0.1593 -0.0509
vn 0.8588 0.0832 -0.5055
vn 0.8322 0.3737 0.4097
vn -0.8588 0.0832 -0.5055
vn -0.8322 0.3737 0.4097
vn -0.0000 0.8784 -0.4780
vn -0.0000 0.3807 -0.9247
vn -0.0000 0.9911 0.1329
vn -0.9128 0.3496 -0.2114
vn 0.8243 0.1070 -0.5559
vn 0.8247 0.5401 0.1679
vn -0.8243 0.1070 -0.5559
vn -0.8247 0.5401 0.1679
vn 0.7252 0.4778 -0.4958
vn 0.7959 0.5826 -0.1649
vn -0.7252 0.4778 -0.4958
vn -0.7959 0.5826 -0.1649
vn 0.4749 0.8336 -0.2820
vn -0.0000 0.9038 -0.4279
vn -0.4749 0.8336 -0.2820
vn -0.0000 0.3662 -0.9305
vn -0.0000 0.2708 -0.9626
vn 0.8453 0.5117 -0.1540
vn -0.8453 0.5117 -0.1540
vn -0.0000 0.7628 0.6466
vn 0.6598 0.3953 -0.6390
vn -0.6598 0.3953 -0.6390
vn 0.7106 0.6251 0.3230
vn -0.7106 0.6251 0.3230
vn -0.0000 -0.1433 -0.9897
vn 0.9773 0.2025 -0.0628
vn -0.9773 0.2025 -0.0628
vn -0.0000 0.7594 0.6506
vn 0.8361 -0.0186 -0.5483
vn -0.8361 -0.0186 -0.5483
vn 0.8469 0.4370 0.3031
vn -0.8469 0.4370 0.3031
vn -0.0000 0.8209 -0.5711
vn 0.9060 0.3652 -0.2142
vn -0.9060 0.3652 -0.2142
vn -0.0000 0.9976 0.0696
vn 0.8197 0.0738 -0.5680
vn -0.8197 0.0738 -0.5680
vn 0.8375 0.5400 0.0833
vn -0.8375 0.5400 0.0833
vn 0.6113 0.5409 -0.5777
vn 0.5827 0.2721 -0.7658
vn -0.0000 0.3164 -0.9486
vn -0.6113 0.5409 -0.5777
vn -0.5827 0.2721 -0.7658
vn -0.0000 0.6974 -0.7167
vn 0.4193 0.7021 -0.5755
vn -0.4193 0.7021 -0.5755
vn -0.0000 0.7068 -0.7074
vn 0.9385 0.2724 -0.2120
vn -0.0000 -0.2241 -0.9746
vn -0.9385 0.2724 -0.2120
vn -0.0000 0.7780 0.6283
vn 0.7431 -0.0390 -0.6681
vn -0.7431 -0.0390 -0.6681
vn 0.7572 0.5730 0.3136
vn -0.7572 0.5730 0.3136
vn 0.9887 0.1294 -0.0759
vn -0.0000 -0.6241 -0.7813
vn -0.9887 0.1294 -0.0759
vn -0.0000 0.8755 0.4832
vn 0.8506 -0.2870 -0.4405
vn -0.8506 -0.2870 -0.4405
vn 0.8171 0.5284 0.2305
vn -0.8171 0.5284 0.2305
vn 0.9328 0.2410 -0.2681
vn -0.0000 -0.0725 -0.9974
vn -0.9328 0.2410 -0.2681
vn -0.0000 0.9967 -0.0806
vn 0.8322 -0.1935 -0.5197
vn -0.8322 -0.1935 -0.5197
vn 0.8325 0.5539 -0.0092
vn -0.8325 0.5539 -0.0092
vn 0.4125 -0.8895 -0.1965
vn 0.5194 -0.6635 -0.5384
vn 0.9726 0.2135 -0.0916
vn 0.9733 0.1816 0.1405
vn 0.8099 -0.0583 -0.5837
vn 0.9425 -0.0817 0.3240
vn 0.9224 0.1621 -0.3506
vn 0.7918 -0.5891 0.1611
vn 0.3037 -0.1629 0.9387
vn 0.2708 0.8069 0.5249
vn 0.4837 -0.6474 0.5890
vn 0.3886 -0.7153 0.5808
vn -0.0000 -0.7443 0.6678
vn 0.4742 0.8780 0.0648
vn 0.4111 0.8435 0.3457
vn -0.0000 0.9012 0.4334
vn -0.9999 -0.0009 0.0152
vn -0.9988 -0.0489 -0.0063
vn -0.9236 -0.3821 -0.0314
vn -0.4680 -0.7593 -0.4523
vn -0.0000 -0.6703 -0.7421
vn -0.8480 0.4698 -0.2454
vn -0.4557 0.5466 -0.7025
vn -0.0000 0.5269 -0.8499
vn -0.3037 -0.1629 0.9387
vn -0.2708 0.8069 0.5249
vn -0.4837 -0.6474 0.5890
vn -0.3886 -0.7153 0.5808
vn -0.4742 0.8780 0.0648
vn -0.4111 0.8435 0.3457
vn 0.9999 -0.0009 0.0152
vn 0.9988 -0.0489 -0.0063
vn 0.9236 -0.3821 -0.0314
vn 0.4680 -0.7593 -0.4523
vn 0.8480 0.4698 -0.2454
vn 0.4557 0.5466 -0.7025
vn -0.4125 -0.8895 -0.1965
vn -0.5194 -0.6635 -0.5384
vn -0.9726 0.2135 -0.0916
vn -0.9733 0.1816 0.1405
vn -0.8099 -0.0583 -0.5837
vn -0.9425 -0.0817 0.3240
vn -0.9224 0.1621 -0.3506
vn -0.7918 -0.5891 0.1611
vn -0.1893 0.8024 0.5660
vn 0.4423 0.8024 -0.4007
vn 0.3560 -0.1511 0.9222
vn 0.9875 -0.1511 -0.0445
vn -0.5909 0.6723 0.4460
vn -0.4656 0.7321 0.4973
vn -0.0257 0.9325 0.3603
vn 0.1549 0.9827 0.1012
vn 0.3197 0.9325 -0.1683
vn 0.2684 0.7321 -0.6261
vn 0.1710 0.6723 -0.7203
vn 0.6817 0.6391 -0.3561
vn 0.8756 0.3988 -0.2726
vn 0.9799 0.1178 -0.1613
vn 0.9020 -0.3760 -0.2122
vn 0.8289 -0.4781 -0.2905
vn 0.9533 -0.1756 0.2457
vn 0.8227 -0.1850 0.5375
vn 0.6080 -0.1756 0.7743
vn 0.1681 -0.3760 0.9113
vn 0.0669 -0.4781 0.8758
vn 0.2459 0.1178 0.9621
vn 0.1021 0.3988 0.9113
vn -0.0522 0.6391 0.7673
vn -0.5078 0.8571 0.0872
vn -0.3669 0.9161 0.1619
vn -0.3461 0.9105 -0.2261
vn -0.1952 0.9725 -0.1275
vn -0.1241 0.8571 -0.5000
vn 0.0009 0.9161 -0.4010
vn 0.4566 0.3865 -0.8013
vn 0.5548 0.4672 -0.6884
vn 0.6578 0.0971 -0.7469
vn 0.7572 0.2008 -0.6215
vn 0.7879 -0.1927 -0.5849
vn 0.8723 -0.0880 -0.4810
vn 0.7453 -0.6633 0.0680
vn 0.8317 -0.5368 0.1418
vn 0.5842 -0.7163 0.3816
vn 0.6874 -0.5708 0.4491
vn 0.3617 -0.6633 0.6552
vn 0.4640 -0.5368 0.7047
vn -0.2191 -0.1927 0.9565
vn -0.0900 -0.0880 0.9920
vn -0.4197 0.0971 0.9024
vn -0.2650 0.2008 0.9431
vn -0.5503 0.3865 0.7401
vn -0.4075 0.4672 0.7846
vn 0.9508 0.2186 0.2196
vn 0.8407 0.5271 0.1240
vn 0.6333 0.7738 0.0121
vn 0.8141 0.2331 0.5319
vn 0.6913 0.5641 0.4516
vn 0.4779 0.8211 0.3122
vn 0.5830 0.2186 0.7825
vn 0.4513 0.5271 0.7201
vn 0.2655 0.7738 0.5750
vn 0.1893 0.8024 0.5660
vn -0.4423 0.8024 -0.4007
vn -0.3560 -0.1511 0.9222
vn -0.9875 -0.1511 -0.0445
vn 0.5909 0.6723 0.4460
vn 0.4656 0.7321 0.4973
vn 0.0257 0.9325 0.3603
vn -0.1549 0.9827 0.1012
vn -0.3196 0.9325 -0.1683
vn -0.2684 0.7321 -0.6261
vn -0.1710 0.6723 -0.7203
vn -0.6817 0.6391 -0.3561
vn -0.8756 0.3988 -0.2726
vn -0.9799 0.1178 -0.1613
vn -0.9020 -0.3760 -0.2122
vn -0.8289 -0.4781 -0.2905
vn -0.9533 -0.1756 0.2457
vn -0.8227 -0.1850 0.5375
vn -0.6080 -0.1756 0.7743
vn -0.1681 -0.3760 0.9113
vn -0.0669 -0.4781 0.8758
vn -0.2459 0.1178 0.9621
vn -0.1021 0.3988 0.9113
vn 0.0522 0.6391 0.7673
vn 0.5078 0.8571 0.0872
vn 0.3669 0.9161 0.1619
vn 0.3461 0.9105 -0.2261
vn 0.1952 0.9725 -0.1275
vn 0.1241 0.8571 -0.5000
vn -0.0009 0.9161 -0.4010
vn -0.4566 0.3865 -0.8013
vn -0.5548 0.4672 -0.6884
vn -0.6578 0.0971 -0.7469
vn -0.7572 0.2008 -0.6215
vn -0.7879 -0.1927 -0.5849
vn -0.8723 -0.0880 -0.4810
vn -0.7453 -0.6633 0.0680
vn -0.8317 -0.5368 0.1418
vn -0.5842 -0.7163 0.3816
vn -0.6874 -0.5708 0.4491
vn -0.3617 -0.6633 0.6552
vn -0.4640 -0.5368 0.7047
vn 0.2191 -0.1927 0.9565
vn 0.0900 -0.0880 0.9920
vn 0.4197 0.0971 0.9024
vn 0.2650 0.2008 0.9431
vn 0.5503 0.3865 0.7401
vn 0.4075 0.4672 0.7846
vn -0.9508 0.2186 0.2196
vn -0.8407 0.5271 0.1240
vn -0.6333 0.7738 0.0121
vn -0.8141 0.2331 0.5319
vn -0.6913 0.5641 0.4516
vn -0.4779 0.8211 0.3122
vn -0.5830 0.2186 0.7825
vn -0.4513 0.5271 0.7201
vn -0.2655 0.7738 0.5750
vn -0.9981 -0.0468 0.0407
vn 0.9978 -0.0454 0.0479
vn 0.0045 0.2630 0.9648
vn 0.0044 0.2630 0.9648
vn 0.7904 0.2201 0.5717
vn 0.7838 0.2219 0.5800
vn -0.7781 0.2242 0.5867
vn -0.7843 0.2226 0.5791
vn 0.9752 0.0726 0.2090
vn 0.9755 0.0717 0.2078
vn -0.9737 0.0748 0.2154
vn -0.9732 0.0759 0.2169
vn 0.3885 0.2676 0.8817
vn 0.3818 0.2676 0.8847
vn -0.3777 0.2678 0.8863
vn -0.3853 0.2677 0.8831
vn 0.9692 -0.1547 -0.1915
vn -0.9682 -0.1516 -0.1989
vn -0.0055 -0.0237 -0.9997
vn -0.7934 -0.0920 -0.6016
vn -0.7586 -0.0870 -0.6457
vn 0.7520 -0.0852 -0.6536
vn 0.7855 -0.0899 -0.6123
vn -0.9537 -0.1356 -0.2685
vn -0.9459 -0.1285 -0.2981
vn 0.9421 -0.1283 -0.3100
vn 0.9518 -0.1364 -0.2747
vn -0.3753 -0.0430 -0.9259
vn -0.3747 -0.0429 -0.9261
vn 0.3704 -0.0425 -0.9279
vt 0.437512 0.517678
vt 0.449832 0.519289
vt 0.442638 0.532277
vt 0.432795 0.530568
vt 0.530340 0.216521
vt 0.568967 0.195973
vt 0.571884 0.178919
vt 0.555966 0.180882
vt 0.693736 0.172136
vt 0.672546 0.191209
vt 0.671683 0.161892
vt 0.685597 0.147203
vt 0.703157 0.147793
vt 0.698817 0.138956
vt 0.513898 0.192062
vt 0.544044 0.171622
vt 0.060801 0.131724
vt 0.111793 0.154884
vt 0.074888 0.162105
vt 0.044941 0.153409
vt 0.171083 0.168515
vt 0.166502 0.196998
vt 0.129360 0.177002
vt 0.445777 0.163202
vt 0.394411 0.171812
vt 0.396940 0.139455
vt 0.445573 0.137281
vt 0.446611 0.269613
vt 0.403042 0.257820
vt 0.396798 0.215477
vt 0.446174 0.213918
vt 0.394511 0.514411
vt 0.376980 0.510512
vt 0.380763 0.524635
vt 0.392845 0.526252
vt 0.517855 0.518274
vt 0.502526 0.514223
vt 0.501022 0.528910
vt 0.514747 0.529833
vt 0.173786 0.089376
vt 0.137659 0.071228
vt 0.115554 0.042019
vt 0.155632 0.049769
vt 0.446778 0.290900
vt 0.416430 0.278667
vt 0.095029 0.066785
vt 0.092001 0.044852
vt 0.557896 0.218295
vt 0.542349 0.244148
vt 0.595260 0.267337
vt 0.599584 0.252121
vt 0.682883 0.137254
vt 0.690905 0.131801
vt 0.563945 0.154427
vt 0.555903 0.153530
vt 0.587772 0.166192
vt 0.581865 0.144344
vt 0.572734 0.150698
vt 0.656375 0.171377
vt 0.659595 0.155848
vt 0.671800 0.148101
vt 0.649709 0.206895
vt 0.622208 0.200566
vt 0.639886 0.173371
vt 0.609000 0.171549
vt 0.605769 0.144553
vt 0.595205 0.150093
vt 0.658014 0.105097
vt 0.670711 0.093477
vt 0.590359 0.139305
vt 0.598801 0.089397
vt 0.591128 0.091406
vt 0.650496 0.157245
vt 0.650030 0.109386
vt 0.578513 0.099270
vt 0.565894 0.107615
vt 0.604857 0.073899
vt 0.596717 0.077607
vt 0.644654 0.101953
vt 0.651881 0.096125
vt 0.578889 0.087294
vt 0.561517 0.098966
vt 0.683011 0.080745
vt 0.667564 0.080518
vt 0.684989 0.065204
vt 0.558153 0.111858
vt 0.690476 0.075431
vt 0.576627 0.073238
vt 0.583258 0.076295
vt 0.592064 0.050586
vt 0.586845 0.045199
vt 0.555458 0.094536
vt 0.572720 0.082141
vt 0.552698 0.071693
vt 0.534265 0.084665
vt 0.603096 0.067240
vt 0.608385 0.062683
vt 0.609000 0.036834
vt 0.606495 0.043278
vt 0.670074 0.067943
vt 0.665689 0.066840
vt 0.670598 0.039595
vt 0.675537 0.043294
vt 0.552324 0.104128
vt 0.693403 0.060013
vt 0.645623 0.092676
vt 0.660608 0.077482
vt 0.639510 0.096407
vt 0.546367 0.098824
vt 0.662218 0.070894
vt 0.664451 0.068699
vt 0.571824 0.076200
vt 0.574702 0.074861
vt 0.688417 0.054844
vt 0.693803 0.049483
vt 0.684748 0.035558
vt 0.687290 0.028988
vt 0.641513 0.072304
vt 0.628582 0.082498
vt 0.622208 0.083386
vt 0.640247 0.065747
vt 0.550167 0.066339
vt 0.526243 0.085203
vt 0.602050 0.288126
vt 0.632696 0.289473
vt 0.627897 0.278930
vt 0.611379 0.302881
vt 0.618279 0.318234
vt 0.641462 0.309500
vt 0.637484 0.299538
vt 0.629212 0.270120
vt 0.579296 0.296627
vt 0.594774 0.320635
vt 0.571082 0.273623
vt 0.664090 0.297763
vt 0.669792 0.273569
vt 0.329256 0.150635
vt 0.333861 0.199489
vt 0.321295 0.197574
vt 0.319972 0.151704
vt 0.149469 0.228127
vt 0.129138 0.227572
vt 0.315157 0.079032
vt 0.334095 0.105434
vt 0.322132 0.110632
vt 0.308277 0.090084
vt 0.203854 0.505139
vt 0.210978 0.516765
vt 0.194873 0.521469
vt 0.191210 0.512279
vt 0.153976 0.256049
vt 0.128261 0.256049
vt 0.193173 0.495142
vt 0.185691 0.504642
vt 0.033160 0.183484
vt 0.068428 0.187486
vt 0.063661 0.219651
vt 0.036289 0.224626
vt 0.445245 0.095431
vt 0.401219 0.100703
vt 0.407295 0.050296
vt 0.444816 0.040650
vt 0.064446 0.255970
vt 0.032979 0.255859
vt 0.286411 0.068342
vt 0.286492 0.081782
vt 0.638813 0.263220
vt 0.331427 0.231166
vt 0.308044 0.275117
vt 0.303220 0.263195
vt 0.320511 0.225944
vt 0.287671 0.279152
vt 0.312696 0.281166
vt 0.287728 0.288721
vt 0.243346 0.231692
vt 0.267252 0.275361
vt 0.262673 0.281465
vt 0.234638 0.235537
vt 0.344153 0.200093
vt 0.340179 0.234906
vt 0.339569 0.149260
vt 0.375509 0.135639
vt 0.379603 0.206036
vt 0.366682 0.203855
vt 0.363344 0.138600
vt 0.240533 0.200047
vt 0.230248 0.200773
vt 0.681677 0.269966
vt 0.680938 0.289234
vt 0.689911 0.282051
vt 0.671093 0.256784
vt 0.655957 0.245287
vt 0.621931 0.272083
vt 0.631656 0.256356
vt 0.667469 0.307610
vt 0.689178 0.232885
vt 0.683802 0.228813
vt 0.682362 0.258326
vt 0.652128 0.237878
vt 0.692086 0.231717
vt 0.682916 0.225470
vt 0.680746 0.300519
vt 0.684806 0.308969
vt 0.702329 0.302949
vt 0.699645 0.300609
vt 0.702729 0.295312
vt 0.700020 0.295966
vt 0.286913 0.152204
vt 0.286624 0.103966
vt 0.287159 0.193410
vt 0.287356 0.226433
vt 0.287603 0.267722
vt 0.482232 0.514883
vt 0.467763 0.520403
vt 0.474346 0.533176
vt 0.483276 0.530319
vt 0.276543 0.388752
vt 0.262089 0.382766
vt 0.269283 0.349973
vt 0.304623 0.341090
vt 0.246574 0.388741
vt 0.239824 0.402577
vt 0.219841 0.402306
vt 0.226318 0.365710
vt 0.195794 0.531182
vt 0.173156 0.531220
vt 0.172430 0.526366
vt 0.179305 0.499922
vt 0.168238 0.517199
vt 0.166080 0.513416
vt 0.180928 0.489262
vt 0.213183 0.531152
vt 0.170608 0.521669
vt 0.143440 0.528112
vt 0.143130 0.524908
vt 0.142711 0.521668
vt 0.126275 0.528456
vt 0.125469 0.525628
vt 0.124511 0.522677
vt 0.142275 0.518534
vt 0.143578 0.531270
vt 0.126586 0.531299
vt 0.108997 0.531329
vt 0.108737 0.528715
vt 0.123989 0.519559
vt 0.107288 0.523474
vt 0.106892 0.520831
vt 0.089146 0.531363
vt 0.089070 0.528918
vt 0.088715 0.523829
vt 0.088627 0.521261
vt 0.108054 0.526109
vt 0.088898 0.526417
vt 0.059498 0.528766
vt 0.059729 0.526067
vt 0.059995 0.523392
vt 0.037221 0.526481
vt 0.037872 0.523934
vt 0.059406 0.531413
vt 0.036232 0.531452
vt 0.036539 0.528997
vt 0.060111 0.520855
vt 0.262188 0.522108
vt 0.261985 0.528723
vt 0.251613 0.528723
vt 0.251087 0.524180
vt 0.263088 0.488061
vt 0.262615 0.504930
vt 0.245347 0.513339
vt 0.236481 0.507082
vt 0.038106 0.521527
vt 0.237454 0.528723
vt 0.249384 0.519147
vt 0.262384 0.514758
vt 0.286009 0.519694
vt 0.285826 0.524239
vt 0.277616 0.523248
vt 0.278605 0.517554
vt 0.287343 0.515391
vt 0.281054 0.511479
vt 0.290025 0.512244
vt 0.285782 0.505552
vt 0.286193 0.528723
vt 0.277426 0.528723
vt 0.450162 0.519405
vt 0.437857 0.517681
vt 0.433023 0.530527
vt 0.442849 0.532326
vt 0.530340 0.216521
vt 0.555966 0.180882
vt 0.571884 0.178919
vt 0.568967 0.195973
vt 0.693736 0.172136
vt 0.685597 0.147203
vt 0.671683 0.161892
vt 0.672546 0.191209
vt 0.703157 0.147792
vt 0.698817 0.138956
vt 0.544044 0.171622
vt 0.059579 0.380531
vt 0.043827 0.358564
vt 0.073926 0.350003
vt 0.111206 0.357585
vt 0.129111 0.335134
vt 0.166564 0.315220
vt 0.171131 0.343902
vt 0.494235 0.138692
vt 0.497271 0.171005
vt 0.495569 0.214702
vt 0.489989 0.257139
vt 0.359004 0.512784
vt 0.366377 0.526463
vt 0.517762 0.518380
vt 0.530537 0.529431
vt 0.523524 0.534000
vt 0.514751 0.529966
vt 0.173532 0.424049
vt 0.154927 0.464022
vt 0.114330 0.471618
vt 0.136870 0.442203
vt 0.476930 0.278192
vt 0.090518 0.468605
vt 0.093717 0.446433
vt 0.553950 0.220988
vt 0.595762 0.251757
vt 0.592516 0.267109
vt 0.540113 0.246670
vt 0.690905 0.131801
vt 0.682883 0.137254
vt 0.555903 0.153530
vt 0.563945 0.154428
vt 0.572734 0.150698
vt 0.581865 0.144344
vt 0.587772 0.166192
vt 0.671800 0.148100
vt 0.659595 0.155848
vt 0.656375 0.171376
vt 0.649709 0.206895
vt 0.639886 0.173370
vt 0.609000 0.171549
vt 0.595205 0.150093
vt 0.605769 0.144553
vt 0.670711 0.093477
vt 0.598801 0.089397
vt 0.650030 0.109386
vt 0.650496 0.157245
vt 0.578513 0.099270
vt 0.596717 0.077607
vt 0.604857 0.073899
vt 0.651881 0.096124
vt 0.644654 0.101953
vt 0.561517 0.098966
vt 0.578889 0.087294
vt 0.683011 0.080745
vt 0.684990 0.065204
vt 0.667564 0.080518
vt 0.690476 0.075431
vt 0.576627 0.073238
vt 0.586845 0.045199
vt 0.592064 0.050586
vt 0.583258 0.076295
vt 0.534265 0.084665
vt 0.552698 0.071693
vt 0.572720 0.082141
vt 0.603096 0.067240
vt 0.606495 0.043278
vt 0.609000 0.036834
vt 0.608385 0.062683
vt 0.670074 0.067943
vt 0.675537 0.043294
vt 0.670598 0.039594
vt 0.665689 0.066840
vt 0.693403 0.060013
vt 0.660608 0.077482
vt 0.639510 0.096406
vt 0.546367 0.098824
vt 0.664451 0.068699
vt 0.662218 0.070894
vt 0.571824 0.076200
vt 0.574702 0.074861
vt 0.688417 0.054844
vt 0.693803 0.049483
vt 0.684748 0.035558
vt 0.687290 0.028988
vt 0.641513 0.072304
vt 0.640247 0.065747
vt 0.622208 0.083386
vt 0.628582 0.082498
vt 0.526243 0.085203
vt 0.629157 0.276663
vt 0.632429 0.289003
vt 0.599983 0.286798
vt 0.609227 0.301891
vt 0.636248 0.300179
vt 0.639117 0.310731
vt 0.615345 0.317533
vt 0.626968 0.266733
vt 0.577684 0.295416
vt 0.592279 0.319020
vt 0.569372 0.274014
vt 0.673293 0.279647
vt 0.663349 0.302465
vt 0.244554 0.151141
vt 0.253849 0.152099
vt 0.253075 0.197982
vt 0.129179 0.284636
vt 0.149520 0.284058
vt 0.257796 0.079374
vt 0.264807 0.090343
vt 0.251198 0.111056
vt 0.239174 0.106001
vt 0.203943 0.557197
vt 0.191274 0.550100
vt 0.194906 0.540897
vt 0.211026 0.545547
vt 0.193295 0.567230
vt 0.185781 0.557756
vt 0.032371 0.328353
vt 0.036073 0.287110
vt 0.063533 0.292341
vt 0.067634 0.324887
vt 0.482482 0.049706
vt 0.489349 0.100012
vt 0.645262 0.262976
vt 0.254198 0.226340
vt 0.271933 0.263382
vt 0.249963 0.307724
vt 0.207998 0.250805
vt 0.216883 0.247213
vt 0.255000 0.299983
vt 0.234224 0.149889
vt 0.367000 0.249855
vt 0.325718 0.307271
vt 0.320589 0.299591
vt 0.358073 0.246369
vt 0.339551 0.046875
vt 0.365741 0.091399
vt 0.356080 0.095102
vt 0.333381 0.055212
vt 0.287911 0.319337
vt 0.287851 0.309243
vt 0.207363 0.092346
vt 0.233019 0.047512
vt 0.239288 0.055774
vt 0.217067 0.095932
vt 0.685568 0.278415
vt 0.691399 0.291614
vt 0.681381 0.297029
vt 0.665833 0.249376
vt 0.677962 0.263609
vt 0.640118 0.254674
vt 0.665105 0.312731
vt 0.695997 0.239368
vt 0.700310 0.244389
vt 0.688518 0.267371
vt 0.663744 0.241453
vt 0.703340 0.243871
vt 0.695841 0.235978
vt 0.679262 0.308024
vt 0.697669 0.311354
vt 0.699880 0.314093
vt 0.681788 0.316955
vt 0.698833 0.306897
vt 0.701583 0.306727
vt 0.482112 0.515288
vt 0.502400 0.514458
vt 0.501019 0.529158
vt 0.483285 0.530716
vt 0.276215 0.417726
vt 0.302449 0.466229
vt 0.267604 0.456082
vt 0.261643 0.423104
vt 0.246224 0.416609
vt 0.225248 0.439015
vt 0.172446 0.536077
vt 0.179411 0.562497
vt 0.166140 0.549049
vt 0.168285 0.545258
vt 0.181070 0.573151
vt 0.170640 0.540780
vt 0.143152 0.537635
vt 0.143451 0.534429
vt 0.142743 0.540876
vt 0.125488 0.536974
vt 0.126284 0.534143
vt 0.124540 0.539928
vt 0.142318 0.544011
vt 0.108746 0.533943
vt 0.124029 0.543048
vt 0.106927 0.541834
vt 0.107314 0.539190
vt 0.089078 0.533807
vt 0.088661 0.541466
vt 0.088741 0.538898
vt 0.108072 0.536552
vt 0.088915 0.536309
vt 0.059747 0.536757
vt 0.059507 0.534060
vt 0.060022 0.539431
vt 0.037897 0.538965
vt 0.037238 0.536420
vt 0.036548 0.533906
vt 0.060147 0.541969
vt 0.262188 0.535338
vt 0.251087 0.533266
vt 0.263088 0.569385
vt 0.236481 0.550364
vt 0.245347 0.544108
vt 0.262615 0.552516
vt 0.038140 0.541371
vt 0.249384 0.538300
vt 0.262384 0.542689
vt 0.286009 0.537752
vt 0.278605 0.539892
vt 0.277616 0.534198
vt 0.285826 0.533207
vt 0.287343 0.542056
vt 0.281054 0.545967
vt 0.290025 0.545202
vt 0.285782 0.551894
vt 0.331327 0.390531
vt 0.317024 0.385432
vt 0.356007 0.340636
vt 0.358187 0.513123
vt 0.376135 0.510635
vt 0.380087 0.524711
vt 0.365725 0.526712
vt 0.298083 0.390149
vt 0.291118 0.403523
vt 0.282618 0.403414
vt 0.316372 0.422577
vt 0.330871 0.417934
vt 0.353782 0.468568
vt 0.393712 0.514323
vt 0.406622 0.522345
vt 0.399869 0.530295
vt 0.392188 0.526183
vt 0.297732 0.417055
vt 0.479789 0.547094
vt 0.485971 0.544807
vt 0.513956 0.544507
vt 0.507206 0.543021
vt 0.497779 0.543205
vt 0.486101 0.545180
vt 0.523486 0.533941
vt 0.507093 0.542825
vt 0.513830 0.544368
vt 0.467689 0.520929
vt 0.474379 0.533647
vt 0.501433 0.556580
vt 0.494368 0.558290
vt 0.506672 0.555907
vt 0.509503 0.560109
vt 0.497665 0.542930
vt 0.494127 0.557986
vt 0.501206 0.556335
vt 0.506895 0.556106
vt 0.479938 0.547519
vt 0.509761 0.560285
vt 0.502136 0.563443
vt 0.493422 0.563187
vt 0.501852 0.563204
vt 0.493140 0.562875
vt 0.414641 0.522537
vt 0.425213 0.519574
vt 0.422916 0.530445
vt 0.416683 0.531494
vt 0.388348 0.391699
vt 0.371518 0.385675
vt 0.406948 0.350416
vt 0.370775 0.424091
vt 0.387811 0.418561
vt 0.405013 0.460538
vt 0.354527 0.391200
vt 0.347439 0.404526
vt 0.337945 0.404354
vt 0.354019 0.418083
vt 0.379148 0.537522
vt 0.369787 0.538101
vt 0.393070 0.541897
vt 0.386829 0.538685
vt 0.358490 0.530297
vt 0.364735 0.539302
vt 0.370302 0.537900
vt 0.407324 0.522588
vt 0.400476 0.530456
vt 0.345370 0.522987
vt 0.357885 0.530641
vt 0.346069 0.522493
vt 0.368770 0.555601
vt 0.371307 0.552271
vt 0.364237 0.539570
vt 0.370964 0.552459
vt 0.368468 0.555819
vt 0.393538 0.541975
vt 0.387336 0.538688
vt 0.380258 0.553387
vt 0.381925 0.557286
vt 0.379669 0.537433
vt 0.376136 0.552253
vt 0.374099 0.557442
vt 0.375793 0.552383
vt 0.373818 0.557596
vt 0.379928 0.553467
vt 0.381642 0.557346
vt 0.436400 0.395618
vt 0.424156 0.391333
vt 0.458560 0.368865
vt 0.441379 0.406091
vt 0.458560 0.406367
vt 0.423658 0.420271
vt 0.436075 0.416394
vt 0.457336 0.443902
vt 0.412021 0.395549
vt 0.406999 0.405456
vt 0.394980 0.405249
vt 0.411700 0.415545
vt 0.431228 0.544331
vt 0.438027 0.546248
vt 0.424429 0.543318
vt 0.419837 0.543749
vt 0.431128 0.544388
vt 0.448619 0.534888
vt 0.442387 0.547844
vt 0.437944 0.546243
vt 0.425542 0.519464
vt 0.423145 0.530313
vt 0.414943 0.522330
vt 0.416903 0.531305
vt 0.459773 0.525726
vt 0.448806 0.534991
vt 0.459500 0.525523
vt 0.439404 0.559224
vt 0.437387 0.555334
vt 0.442455 0.547890
vt 0.439369 0.559243
vt 0.424540 0.543200
vt 0.419944 0.543588
vt 0.426248 0.558003
vt 0.428843 0.554352
vt 0.433241 0.554441
vt 0.432703 0.560579
vt 0.433233 0.554479
vt 0.432655 0.560536
vt 0.426273 0.558105
vt 0.428834 0.554430
vt 0.078002 0.127030
vt 0.108120 0.141849
vt 0.142077 0.098996
vt 0.119746 0.087620
vt 0.077002 0.098252
vt 0.086250 0.106884
vt 0.177505 0.129357
vt 0.147291 0.123899
vt 0.142159 0.147985
vt 0.095610 0.087443
vt 0.344115 0.101046
vt 0.320018 0.071555
vt 0.286366 0.060740
vt 0.286270 0.044617
vt 0.207766 0.204805
vt 0.210324 0.139515
vt 0.229102 0.101733
vt 0.252846 0.071956
vt 0.194873 0.207140
vt 0.198124 0.136699
vt 0.286205 0.033743
vt 0.107420 0.370690
vt 0.076914 0.385408
vt 0.118849 0.425513
vt 0.141499 0.414142
vt 0.085100 0.405828
vt 0.075690 0.414488
vt 0.146906 0.388993
vt 0.177505 0.383596
vt 0.141812 0.364621
vt 0.094438 0.425541
vt 0.205730 0.629875
vt 0.212442 0.625745
vt 0.217196 0.630134
vt 0.212201 0.637223
vt 0.222929 0.633133
vt 0.221298 0.640843
vt 0.202733 0.621389
vt 0.209748 0.620173
vt 0.214057 0.619426
vt 0.216767 0.622260
vt 0.220604 0.625297
vt 0.224754 0.627887
vt 0.228335 0.629486
vt 0.229082 0.633795
vt 0.230298 0.640809
vt 0.238785 0.637812
vt 0.234654 0.631101
vt 0.239044 0.626347
vt 0.246133 0.631341
vt 0.242043 0.620614
vt 0.249753 0.622245
vt 0.231170 0.626775
vt 0.234206 0.622939
vt 0.236797 0.618789
vt 0.238395 0.615207
vt 0.242704 0.614460
vt 0.249719 0.613244
vt 0.246722 0.604758
vt 0.240010 0.608888
vt 0.235256 0.604499
vt 0.240251 0.597410
vt 0.229523 0.601500
vt 0.231154 0.593790
vt 0.235685 0.612373
vt 0.231848 0.609336
vt 0.227698 0.606746
vt 0.224117 0.605147
vt 0.223370 0.600838
vt 0.222154 0.593824
vt 0.213667 0.596821
vt 0.217798 0.603532
vt 0.213408 0.608286
vt 0.206319 0.603292
vt 0.210409 0.614019
vt 0.202699 0.612388
vt 0.221282 0.607858
vt 0.218246 0.611694
vt 0.215655 0.615844
vt 0.232824 0.616173
vt 0.230209 0.620123
vt 0.226226 0.617317
vt 0.229032 0.613333
vt 0.227370 0.623914
vt 0.223420 0.621300
vt 0.222243 0.614510
vt 0.225082 0.610719
vt 0.219628 0.618460
vt 0.287001 0.641904
vt 0.277904 0.638284
vt 0.282899 0.631195
vt 0.288632 0.634194
vt 0.271434 0.630936
vt 0.278145 0.626805
vt 0.296001 0.641870
vt 0.294785 0.634856
vt 0.290457 0.628948
vt 0.294038 0.630546
vt 0.286307 0.626358
vt 0.282470 0.623321
vt 0.275451 0.621234
vt 0.279760 0.620487
vt 0.268436 0.622449
vt 0.268402 0.613449
vt 0.272023 0.604352
vt 0.279112 0.609347
vt 0.276112 0.615080
vt 0.279370 0.597882
vt 0.283501 0.604593
vt 0.281358 0.616905
vt 0.283949 0.612755
vt 0.286985 0.608918
vt 0.289073 0.601899
vt 0.289820 0.606208
vt 0.287857 0.594884
vt 0.296857 0.594851
vt 0.305954 0.598471
vt 0.300960 0.605560
vt 0.295226 0.602561
vt 0.312425 0.605819
vt 0.305713 0.609949
vt 0.293401 0.607806
vt 0.297552 0.610397
vt 0.301388 0.613433
vt 0.308408 0.615521
vt 0.304098 0.616268
vt 0.315422 0.614305
vt 0.315456 0.623305
vt 0.311836 0.632402
vt 0.304747 0.627408
vt 0.307746 0.621675
vt 0.304488 0.638873
vt 0.300357 0.632162
vt 0.302500 0.619849
vt 0.299909 0.624000
vt 0.296873 0.627836
vt 0.290785 0.611779
vt 0.294735 0.614394
vt 0.291929 0.618377
vt 0.287946 0.615571
vt 0.289123 0.622360
vt 0.285331 0.619521
vt 0.298527 0.617234
vt 0.295912 0.621184
vt 0.293073 0.624975
vt 0.623922 0.905425
vt 0.623922 0.620284
vt 0.594643 0.666671
vt 0.577128 0.905425
vt 0.811098 0.861968
vt 0.811098 0.620284
vt 0.764304 0.640892
vt 0.764304 0.853179
vt 0.717510 0.861968
vt 0.717510 0.620284
vt 0.670716 0.620284
vt 0.670716 0.861968
vt 0.904685 0.905425
vt 0.904685 0.620284
vt 0.857891 0.620284
vt 0.857891 0.861968
vt 0.951479 0.905425
vt 0.926152 0.666671
vt 0.597119 0.931709
vt 0.634770 0.630756
vt 0.608040 0.687111
vt 0.581314 0.892378
vt 0.832560 0.863438
vt 0.823115 0.620798
vt 0.764981 0.640892
vt 0.764646 0.853369
vt 0.700921 0.863438
vt 0.710426 0.620798
vt 0.669178 0.633308
vt 0.652672 0.871164
vt 0.939496 0.931709
vt 0.901464 0.630756
vt 0.864264 0.633308
vt 0.880564 0.871164
vt 0.954256 0.892378
vt 0.927297 0.687111
s 1
usemtl Material.003
f 412/1/412 17/2/17 425/3/425 421/4/421
f 448/5/448 450/6/450 28/7/28 27/8/27
f 446/9/446 449/10/449 22/11/22 23/12/23
f 445/13/445 446/9/446 23/12/23 25/14/25
f 447/15/447 448/5/448 27/8/27 26/16/26
f 1/17/1 104/18/104 105/19/105 89/20/89
f 104/18/104 350/21/350 147/22/147 106/23/106
f 11/24/11 1/25/1 89/26/89 90/27/90
f 5/28/5 3/29/3 8/30/8 13/31/13
f 13/31/13 8/30/8 1/25/1 11/24/11
f 9/32/9 349/33/349 389/34/389 394/35/394
f 386/36/386 313/37/313 360/38/360 363/39/363
f 380/40/380 7/41/7 16/42/16 413/43/413
f 3/29/3 5/28/5 19/44/19 20/45/20
f 7/41/7 3/46/3 20/47/20 16/42/16
f 18/48/18 413/49/413 82/50/82 81/51/81
f 25/14/25 23/12/23 32/52/32 34/53/34
f 26/16/26 27/8/27 36/54/36 35/55/35
f 28/7/28 24/56/24 33/57/33 37/58/37
f 22/11/22 21/59/21 30/60/30 31/61/31
f 451/62/451 447/63/447 26/64/26 21/59/21
f 452/65/452 445/66/445 25/67/25 24/56/24
f 449/10/449 451/62/451 21/59/21 22/11/22
f 450/6/450 452/65/452 24/56/24 28/7/28
f 31/61/31 30/60/30 29/68/29 39/69/39
f 33/57/33 34/70/34 42/71/42 41/72/41
f 30/60/30 35/73/35 43/74/43 29/68/29
f 36/54/36 37/58/37 45/75/45 44/76/44
f 23/12/23 22/11/22 31/61/31 32/52/32
f 27/8/27 28/7/28 37/58/37 36/54/36
f 21/59/21 26/64/26 35/73/35 30/60/30
f 24/56/24 25/67/25 34/70/34 33/57/33
f 41/72/41 42/71/42 63/77/63 62/78/62
f 29/68/29 43/74/43 56/79/56 54/80/54
f 44/76/44 45/75/45 64/81/64 57/82/57
f 40/83/40 39/69/39 60/84/60 61/85/61
f 37/58/37 33/57/33 41/72/41 45/75/45
f 35/55/35 36/54/36 44/76/44 43/86/43
f 34/53/34 32/52/32 40/83/40 42/87/42
f 32/52/32 31/61/31 39/69/39 40/83/40
f 59/88/59 58/89/58 77/90/77 69/91/69
f 51/92/51 52/93/52 73/94/73 72/95/72
f 48/96/48 49/97/49 68/98/68 76/99/76
f 55/100/55 59/101/59 69/102/69 74/103/74
f 39/69/39 29/68/29 54/80/54 60/84/60
f 45/75/45 41/72/41 62/78/62 64/81/64
f 43/86/43 44/76/44 57/82/57 56/104/56
f 42/87/42 40/83/40 61/85/61 63/105/63
f 38/106/38 46/107/46 60/84/60 54/80/54
f 50/108/50 38/106/38 54/80/54 56/79/56
f 51/92/51 50/109/50 56/104/56 57/82/57
f 52/93/52 51/92/51 57/82/57 64/81/64
f 46/107/46 53/110/53 65/111/65 60/84/60
f 53/112/53 52/93/52 64/81/64 65/113/65
f 55/100/55 47/114/47 61/85/61 60/84/60
f 49/97/49 48/96/48 62/78/62 63/77/63
f 47/114/47 49/115/49 63/105/63 61/85/61
f 48/96/48 58/89/58 64/81/64 62/78/62
f 59/101/59 55/100/55 60/84/60 65/111/65
f 58/89/58 59/88/59 65/113/65 64/81/64
f 75/116/75 74/103/74 69/102/69 68/117/68
f 71/118/71 70/119/70 66/120/66 67/121/67
f 67/122/67 66/123/66 72/95/72 73/94/73
f 68/98/68 69/91/69 77/90/77 76/99/76
f 46/107/46 38/106/38 70/119/70 71/118/71
f 49/115/49 47/114/47 75/116/75 68/117/68
f 53/110/53 46/107/46 71/118/71 67/121/67
f 38/106/38 50/108/50 66/120/66 70/119/70
f 58/89/58 48/96/48 76/99/76 77/90/77
f 52/93/52 53/112/53 67/122/67 73/94/73
f 47/114/47 55/100/55 74/103/74 75/116/75
f 50/109/50 51/92/51 72/95/72 66/123/66
f 82/50/82 78/124/78 15/125/15 87/126/87
f 79/127/79 80/128/80 84/129/84 83/130/83
f 81/51/81 82/50/82 87/126/87 86/131/86
f 20/132/20 19/133/19 80/128/80 79/127/79
f 413/49/413 16/134/16 78/124/78 82/50/82
f 16/134/16 20/132/20 79/127/79 78/124/78
f 15/125/15 83/130/83 113/135/113 112/136/112
f 78/124/78 79/127/79 83/130/83 15/125/15
f 88/137/88 10/138/10 133/139/133 135/140/135
f 106/23/106 147/22/147 148/141/148 107/142/107
f 100/143/100 97/144/97 141/145/141 144/146/144
f 91/147/91 351/148/351 153/149/153 150/150/150
f 107/142/107 148/141/148 149/151/149 108/152/108
f 93/153/93 91/147/91 150/150/150 154/154/154
f 98/155/98 109/156/109 110/157/110 101/158/101
f 99/159/99 98/160/98 101/161/101 102/162/102
f 90/27/90 89/26/89 98/160/98 99/159/99
f 89/20/89 105/19/105 109/156/109 98/155/98
f 101/158/101 110/157/110 111/163/111 102/164/102
f 103/165/103 100/143/100 144/146/144 142/166/142
f 87/126/87 15/125/15 112/136/112 117/167/117
f 97/144/97 88/137/88 135/140/135 141/145/141
f 92/168/92 94/169/94 143/170/143 138/171/138
f 96/172/96 94/169/94 464/173/464 465/174/465
f 284/175/284 286/176/286 478/177/478 477/178/477
f 92/168/92 10/138/10 461/179/461 463/180/463
f 286/176/286 96/172/96 465/174/465 478/177/478
f 10/138/10 88/137/88 462/181/462 461/179/461
f 105/182/105 104/183/104 453/184/453 454/185/454
f 213/186/213 284/175/284 477/178/477 475/187/475
f 115/188/115 112/136/112 125/189/125 128/190/128
f 117/167/117 112/136/112 85/191/85 120/192/120
f 86/193/86 87/126/87 117/167/117 116/194/116
f 83/130/83 84/129/84 114/195/114 113/135/113
f 120/192/120 85/191/85 121/196/121 124/197/124
f 112/136/112 115/188/115 118/198/118 85/191/85
f 116/194/116 117/167/117 120/192/120 119/199/119
f 122/200/122 123/201/123 124/197/124 121/196/121
f 119/199/119 120/192/120 124/197/124 123/201/123
f 85/191/85 118/198/118 122/200/122 121/196/121
f 126/202/126 127/203/127 131/204/131 130/205/130
f 112/136/112 113/135/113 126/202/126 125/189/125
f 113/135/113 114/195/114 127/203/127 126/202/126
f 131/204/131 132/206/132 129/207/129 130/205/130
f 128/190/128 125/189/125 129/207/129 132/206/132
f 125/189/125 126/202/126 130/205/130 129/207/129
f 135/140/135 136/208/136 137/209/137 141/145/141
f 133/139/133 134/210/134 136/208/136 135/140/135
f 134/210/134 133/139/133 138/171/138 139/211/139
f 139/211/139 138/171/138 143/170/143 140/212/140
f 141/145/141 137/209/137 142/166/142 144/146/144
f 10/138/10 92/168/92 138/171/138 133/139/133
f 94/169/94 96/172/96 140/212/140 143/170/143
f 207/213/207 12/214/12 359/215/359 364/216/364
f 351/217/351 91/218/91 147/219/147 350/220/350
f 93/221/93 95/222/95 149/223/149 148/224/148
f 91/218/91 93/221/93 148/224/148 147/219/147
f 153/149/153 152/225/152 157/226/157 158/227/158
f 189/228/189 154/154/154 159/229/159 190/230/190
f 95/231/95 93/153/93 154/154/154 189/228/189
f 351/148/351 352/232/352 152/225/152 153/149/153
f 155/233/155 158/227/158 161/234/161 151/235/151
f 159/229/159 155/233/155 151/235/151 162/236/162
f 154/154/154 150/150/150 155/233/155 159/229/159
f 150/150/150 153/149/153 158/227/158 155/233/155
f 151/235/151 161/234/161 164/237/164 156/238/156
f 162/236/162 151/235/151 156/238/156 165/239/165
f 190/230/190 159/229/159 162/236/162 192/240/192
f 158/227/158 157/226/157 191/241/191 161/234/161
f 164/237/164 193/242/193 195/243/195 167/244/167
f 194/245/194 165/239/165 168/246/168 196/247/196
f 192/240/192 162/236/162 165/239/165 194/245/194
f 161/234/161 191/241/191 193/242/193 164/237/164
f 167/244/167 195/243/195 197/248/197 170/249/170
f 196/247/196 168/246/168 171/250/171 198/251/198
f 165/239/165 156/238/156 160/252/160 168/246/168
f 156/238/156 164/237/164 167/244/167 160/252/160
f 163/253/163 170/249/170 174/254/174 166/255/166
f 171/250/171 163/253/163 166/255/166 175/256/175
f 168/246/168 160/252/160 163/253/163 171/250/171
f 160/252/160 167/244/167 170/249/170 163/253/163
f 175/256/175 166/255/166 169/257/169 177/258/177
f 174/254/174 199/259/199 201/260/201 176/261/176
f 198/251/198 171/250/171 175/256/175 173/262/173
f 170/249/170 197/248/197 199/259/199 174/254/174
f 166/255/166 174/254/174 176/261/176 169/257/169
f 173/262/173 175/256/175 177/258/177 202/271/202
f 169/275/169 176/276/176 182/277/182 183/278/183
f 177/279/177 169/275/169 183/278/183 181/280/181
f 202/281/202 177/279/177 181/280/181 180/282/180
f 176/276/176 201/283/201 200/284/200 182/277/182
f 216/285/216 415/286/415 423/287/423 426/288/426
f 484/289/484 224/290/224 225/291/225 486/292/486
f 482/293/482 220/294/220 219/295/219 485/296/485
f 481/297/481 222/298/222 220/294/220 482/293/482
f 483/15/483 223/299/223 224/290/224 484/289/484
f 206/300/206 282/301/282 292/302/292 291/303/291
f 291/303/291 293/304/293 314/305/314 354/306/354
f 11/24/11 90/27/90 282/307/282 206/308/206
f 5/28/5 13/31/13 211/309/211 208/310/208
f 13/31/13 11/24/11 206/308/206 211/309/211
f 349/33/349 418/311/418 392/312/392 389/34/389
f 384/313/384 385/314/385 358/315/358 361/316/361
f 382/317/382 416/318/416 215/319/215 210/320/210
f 208/310/208 217/321/217 19/44/19 5/28/5
f 210/320/210 215/319/215 217/322/217 208/323/208
f 18/324/18 81/325/81 277/326/277 416/327/416
f 222/298/222 231/328/231 229/329/229 220/294/220
f 223/299/223 232/330/232 233/331/233 224/290/224
f 225/291/225 234/332/234 230/333/230 221/334/221
f 219/295/219 228/335/228 227/336/227 218/337/218
f 487/338/487 218/337/218 223/339/223 483/63/483
f 488/340/488 221/334/221 222/341/222 481/342/481
f 485/296/485 219/295/219 218/337/218 487/338/487
f 486/292/486 225/291/225 221/334/221 488/340/488
f 228/335/228 236/343/236 226/68/226 227/336/227
f 230/333/230 238/72/238 239/344/239 231/70/231
f 227/336/227 226/68/226 240/345/240 232/346/232
f 233/331/233 241/76/241 242/347/242 234/332/234
f 220/294/220 229/329/229 228/335/228 219/295/219
f 224/290/224 233/331/233 234/332/234 225/291/225
f 218/337/218 227/336/227 232/346/232 223/339/223
f 221/334/221 230/333/230 231/70/231 222/341/222
f 238/72/238 259/348/259 260/349/260 239/344/239
f 226/68/226 251/350/251 253/351/253 240/345/240
f 241/76/241 254/352/254 261/353/261 242/347/242
f 237/354/237 258/355/258 257/356/257 236/343/236
f 234/332/234 242/347/242 238/72/238 230/333/230
f 232/330/232 240/86/240 241/76/241 233/331/233
f 231/328/231 239/357/239 237/354/237 229/329/229
f 229/329/229 237/354/237 236/343/236 228/335/228
f 256/358/256 266/359/266 274/360/274 255/361/255
f 248/92/248 269/362/269 270/363/270 249/364/249
f 245/365/245 273/366/273 265/367/265 246/368/246
f 252/369/252 271/370/271 266/371/266 256/372/256
f 236/343/236 257/356/257 251/350/251 226/68/226
f 242/347/242 261/353/261 259/348/259 238/72/238
f 240/86/240 253/104/253 254/352/254 241/76/241
f 239/357/239 260/373/260 258/355/258 237/354/237
f 235/106/235 251/350/251 257/356/257 243/374/243
f 247/375/247 253/351/253 251/350/251 235/106/235
f 248/92/248 254/352/254 253/104/253 247/376/247
f 249/364/249 261/353/261 254/352/254 248/92/248
f 243/374/243 257/356/257 262/377/262 250/378/250
f 250/379/250 262/380/262 261/353/261 249/364/249
f 252/369/252 257/356/257 258/355/258 244/381/244
f 246/368/246 260/349/260 259/348/259 245/365/245
f 244/381/244 258/355/258 260/373/260 246/382/246
f 245/365/245 259/348/259 261/353/261 255/361/255
f 256/372/256 262/377/262 257/356/257 252/369/252
f 255/361/255 261/353/261 262/380/262 256/358/256
f 272/383/272 265/384/265 266/371/266 271/370/271
f 268/385/268 264/386/264 263/387/263 267/388/267
f 264/122/264 270/363/270 269/362/269 263/389/263
f 265/367/265 273/366/273 274/360/274 266/359/266
f 243/374/243 268/385/268 267/388/267 235/106/235
f 246/382/246 265/384/265 272/383/272 244/381/244
f 250/378/250 264/386/264 268/385/268 243/374/243
f 235/106/235 267/388/267 263/387/263 247/375/247
f 255/361/255 274/360/274 273/366/273 245/365/245
f 249/364/249 270/363/270 264/122/264 250/379/250
f 244/381/244 272/383/272 271/370/271 252/369/252
f 247/376/247 263/389/263 269/362/269 248/92/248
f 277/326/277 280/390/280 214/391/214 275/392/275
f 276/393/276 278/394/278 84/395/84 80/396/80
f 81/325/81 86/397/86 280/390/280 277/326/277
f 217/398/217 276/393/276 80/396/80 19/399/19
f 416/327/416 277/326/277 275/392/275 215/400/215
f 215/400/215 275/392/275 276/393/276 217/398/217
f 214/391/214 297/401/297 298/402/298 278/394/278
f 275/392/275 214/391/214 278/394/278 276/393/276
f 281/403/281 308/404/308 307/405/307 213/186/213
f 293/304/293 294/406/294 315/407/315 314/305/314
f 289/408/289 312/409/312 310/410/310 287/411/287
f 283/412/283 316/413/316 318/414/318 355/415/355
f 294/406/294 108/152/108 149/151/149 315/407/315
f 285/416/285 319/417/319 316/413/316 283/412/283
f 288/418/288 290/419/290 296/420/296 295/421/295
f 99/159/99 102/162/102 290/422/290 288/423/288
f 90/27/90 99/159/99 288/423/288 282/307/282
f 282/301/282 288/418/288 295/421/295 292/302/292
f 290/419/290 102/164/102 111/163/111 296/420/296
f 103/165/103 142/166/142 312/409/312 289/408/289
f 280/390/280 299/424/299 297/401/297 214/391/214
f 287/411/287 310/410/310 308/404/308 281/403/281
f 284/175/284 309/425/309 311/426/311 286/176/286
f 294/427/294 293/428/293 471/429/471 472/430/472
f 281/403/281 213/186/213 475/187/475 476/431/476
f 106/432/106 107/433/107 456/434/456 455/435/455
f 110/436/110 109/437/109 458/438/458 459/439/459
f 108/440/108 294/427/294 472/430/472 457/441/457
f 295/442/295 296/443/296 474/444/474 473/445/473
f 107/433/107 108/440/108 457/441/457 456/434/456
f 115/446/115 128/447/128 303/448/303 297/401/297
f 299/424/299 300/449/300 279/450/279 297/401/297
f 86/397/86 116/451/116 299/424/299 280/390/280
f 278/394/278 298/402/298 114/452/114 84/395/84
f 300/449/300 302/453/302 301/454/301 279/450/279
f 297/401/297 279/450/279 118/455/118 115/446/115
f 116/451/116 119/456/119 300/449/300 299/424/299
f 122/457/122 301/454/301 302/453/302 123/458/123
f 119/456/119 123/458/123 302/453/302 300/449/300
f 279/450/279 301/454/301 122/457/122 118/455/118
f 304/459/304 306/460/306 131/461/131 127/462/127
f 297/401/297 303/448/303 304/459/304 298/402/298
f 298/402/298 304/459/304 127/462/127 114/452/114
f 131/461/131 306/460/306 305/463/305 132/464/132
f 128/447/128 132/464/132 305/463/305 303/448/303
f 303/448/303 305/463/305 306/460/306 304/459/304
f 308/404/308 310/410/310 137/209/137 136/208/136
f 307/405/307 308/404/308 136/208/136 134/210/134
f 134/210/134 139/211/139 309/425/309 307/405/307
f 139/211/139 140/212/140 311/426/311 309/425/309
f 310/410/310 312/409/312 142/166/142 137/209/137
f 213/186/213 307/405/307 309/425/309 284/175/284
f 286/176/286 311/426/311 140/212/140 96/172/96
f 2/465/2 145/466/145 356/467/356 362/468/362
f 355/469/355 354/470/354 314/471/314 283/472/283
f 285/473/285 315/474/315 149/223/149 95/222/95
f 283/472/283 314/471/314 315/474/315 285/473/285
f 318/414/318 322/475/322 157/226/157 152/225/152
f 189/476/189 190/477/190 323/478/323 319/417/319
f 95/479/95 189/476/189 319/417/319 285/416/285
f 355/415/355 318/414/318 152/225/152 352/232/352
f 320/480/320 317/481/317 325/482/325 322/475/322
f 323/478/323 326/483/326 317/481/317 320/480/320
f 319/417/319 323/478/323 320/480/320 316/413/316
f 316/413/316 320/480/320 322/475/322 318/414/318
f 317/481/317 321/484/321 328/485/328 325/482/325
f 326/483/326 329/486/329 321/484/321 317/481/317
f 190/477/190 192/487/192 326/483/326 323/478/323
f 322/475/322 325/482/325 191/241/191 157/226/157
f 328/485/328 331/488/331 195/243/195 193/242/193
f 194/489/194 196/490/196 332/491/332 329/486/329
f 192/487/192 194/489/194 329/486/329 326/483/326
f 325/482/325 328/485/328 193/242/193 191/241/191
f 331/488/331 334/492/334 197/248/197 195/243/195
f 196/490/196 198/493/198 335/494/335 332/491/332
f 329/486/329 332/491/332 324/495/324 321/484/321
f 321/484/321 324/495/324 331/488/331 328/485/328
f 327/496/327 330/497/330 337/498/337 334/492/334
f 335/494/335 338/499/338 330/497/330 327/496/327
f 332/491/332 335/494/335 327/496/327 324/495/324
f 324/495/324 327/496/327 334/492/334 331/488/331
f 338/499/338 340/500/340 333/501/333 330/497/330
f 337/498/337 339/502/339 201/260/201 199/259/199
f 198/493/198 173/503/173 338/499/338 335/494/335
f 334/492/334 337/498/337 199/259/199 197/248/197
f 330/497/330 333/501/333 339/502/339 337/498/337
f 173/503/173 202/510/202 340/500/340 338/499/338
f 333/513/333 345/514/345 344/515/344 339/516/339
f 340/517/340 343/518/343 345/514/345 333/513/333
f 202/519/202 180/520/180 343/518/343 340/517/340
f 339/516/339 344/515/344 200/284/200 201/283/201
f 384/521/384 145/522/145 350/220/350 381/523/381
f 419/524/419 353/525/353 390/526/390 393/527/393
f 2/528/2 12/529/12 352/530/352 351/217/351
f 145/522/145 2/528/2 351/217/351 350/220/350
f 313/531/313 386/532/386 383/533/383 354/470/354
f 212/534/212 14/535/14 391/536/391 395/537/395
f 12/529/12 207/538/207 355/469/355 352/530/352
f 207/538/207 313/531/313 354/470/354 355/469/355
f 364/216/364 359/215/359 366/539/366 371/540/371
f 361/316/361 358/315/358 365/541/365 368/542/368
f 362/468/362 356/467/356 146/543/146 369/544/369
f 358/545/358 363/39/363 370/546/370 365/547/365
f 12/548/12 2/465/2 362/468/362 359/549/359
f 145/466/145 384/313/384 361/316/361 356/467/356
f 313/37/313 207/213/207 364/216/364 360/38/360
f 385/314/385 386/36/386 363/39/363 358/545/358
f 369/544/369 146/543/146 357/550/357 377/551/377
f 365/547/365 370/546/370 378/552/378 373/553/373
f 367/554/367 371/540/371 379/555/379 375/556/375
f 146/543/146 368/542/368 376/557/376 357/550/357
f 363/39/363 360/38/360 367/554/367 370/546/370
f 359/549/359 362/468/362 369/544/369 366/558/366
f 356/467/356 361/316/361 368/542/368 146/543/146
f 360/38/360 364/216/364 371/540/371 367/554/367
f 376/557/376 373/559/373 372/560/372 357/550/357
f 374/561/374 377/551/377 357/550/357 372/560/372
f 378/552/378 375/556/375 372/562/372 373/553/373
f 374/563/374 372/562/372 375/556/375 379/555/379
f 368/542/368 365/541/365 373/559/373 376/557/376
f 371/540/371 366/539/366 374/563/374 379/555/379
f 370/546/370 367/554/367 375/556/375 378/552/378
f 366/558/366 369/544/369 377/551/377 374/561/374
f 6/564/6 4/565/4 427/566/427 424/567/424
f 418/568/418 349/569/349 381/523/381 380/570/380
f 4/565/4 412/1/412 421/4/421 427/566/427
f 353/571/353 419/572/419 382/573/382 383/533/383
f 9/574/9 14/575/14 385/576/385 384/521/384
f 14/575/14 212/577/212 386/532/386 385/576/385
f 349/569/349 9/574/9 384/521/384 381/523/381
f 212/577/212 353/571/353 383/533/383 386/532/386
f 393/527/393 390/526/390 398/578/398 401/579/401
f 395/537/395 391/536/391 399/580/399 403/581/403
f 390/526/390 395/537/395 403/581/403 398/578/398
f 392/312/392 387/582/387 396/583/396 400/584/400
f 14/585/14 9/32/9 394/35/394 391/586/391
f 417/587/417 419/524/419 393/527/393 387/588/387
f 418/311/418 417/589/417 387/582/387 392/312/392
f 353/525/353 212/534/212 395/537/395 390/526/390
f 400/584/400 396/583/396 388/590/388 408/591/408
f 396/592/396 401/579/401 409/593/409 388/594/388
f 399/595/399 402/596/402 410/597/410 407/598/407
f 402/596/402 397/599/397 405/600/405 410/597/410
f 389/34/389 392/312/392 400/584/400 397/599/397
f 394/35/394 389/34/389 397/599/397 402/596/402
f 391/586/391 394/35/394 402/596/402 399/595/399
f 387/588/387 393/527/393 401/579/401 396/592/396
f 408/591/408 388/590/388 404/601/404 405/600/405
f 409/593/409 406/602/406 404/603/404 388/594/388
f 407/598/407 410/597/410 405/600/405 404/601/404
f 411/604/411 407/605/407 404/603/404 406/602/406
f 398/578/398 403/581/403 411/604/411 406/602/406
f 403/581/403 399/580/399 407/605/407 411/604/411
f 401/579/401 398/578/398 406/602/406 409/593/409
f 397/599/397 400/584/400 408/591/408 405/600/405
f 17/606/17 412/607/412 380/570/380 413/608/413
f 414/609/414 17/606/17 413/608/413 18/610/18
f 415/611/415 216/612/216 416/613/416 382/573/382
f 216/612/216 414/609/414 18/610/18 416/613/416
f 4/614/4 6/615/6 417/616/417 418/568/418
f 6/615/6 209/617/209 419/572/419 417/616/417
f 412/607/412 4/614/4 418/568/418 380/570/380
f 209/617/209 415/611/415 382/573/382 419/572/419
f 426/288/426 423/287/423 431/618/431 434/619/434
f 424/567/424 427/566/427 435/620/435 432/621/432
f 427/566/427 421/4/421 429/622/429 435/620/435
f 425/3/425 422/623/422 430/624/430 433/625/433
f 415/286/415 209/626/209 428/627/428 423/287/423
f 209/626/209 6/628/6 424/629/424 428/627/428
f 414/630/414 216/285/216 426/288/426 422/631/422
f 17/2/17 414/632/414 422/623/422 425/3/425
f 433/625/433 430/624/430 438/633/438 441/634/441
f 430/635/430 434/619/434 442/634/442 438/636/438
f 436/637/436 432/638/432 440/639/440 444/640/444
f 431/618/431 436/637/436 444/640/444 439/641/439
f 421/4/421 425/3/425 433/625/433 429/622/429
f 423/287/423 428/627/428 436/637/436 431/618/431
f 428/627/428 424/629/424 432/638/432 436/637/436
f 422/631/422 426/288/426 434/619/434 430/635/430
f 420/642/420 437/643/437 441/634/441 438/633/438
f 420/644/420 438/636/438 442/634/442 439/641/439
f 440/645/440 443/646/443 437/643/437 420/642/420
f 444/640/444 440/639/440 420/644/420 439/641/439
f 435/620/435 429/622/429 437/643/437 443/646/443
f 432/621/432 435/620/435 443/646/443 440/645/440
f 434/619/434 431/618/431 439/641/439 442/634/442
f 429/622/429 433/625/433 441/634/441 437/643/437
f 104/18/104 1/17/1 452/647/452 450/648/450
f 7/41/7 380/40/380 451/649/451 449/650/449
f 1/17/1 8/651/8 445/652/445 452/647/452
f 380/40/380 381/653/381 447/654/447 451/649/451
f 381/653/381 350/21/350 448/655/448 447/654/447
f 8/651/8 3/46/3 446/656/446 445/652/445
f 3/46/3 7/41/7 449/650/449 446/656/446
f 350/21/350 104/18/104 450/648/450 448/655/448
f 461/179/461 462/181/462 454/185/454 453/184/453
f 463/180/463 461/179/461 453/184/453 455/435/455
f 465/174/465 464/173/464 456/434/456 457/441/457
f 464/173/464 463/180/463 455/435/455 456/434/456
f 462/181/462 466/657/466 458/438/458 454/185/454
f 467/658/467 468/659/468 460/660/460 459/439/459
f 466/657/466 467/658/467 459/439/459 458/438/458
f 475/187/475 469/661/469 470/662/470 476/431/476
f 477/178/477 471/429/471 469/661/469 475/187/475
f 465/174/465 457/441/457 472/430/472 478/177/478
f 478/177/478 472/430/472 471/429/471 477/178/477
f 476/431/476 470/662/470 473/445/473 479/663/479
f 480/664/480 474/444/474 460/660/460 468/659/468
f 479/663/479 473/445/473 474/444/474 480/664/480
f 287/411/287 281/403/281 476/431/476 479/663/479
f 109/437/109 105/182/105 454/185/454 458/438/458
f 94/169/94 92/168/92 463/180/463 464/173/464
f 291/665/291 292/666/292 470/662/470 469/661/469
f 103/165/103 289/408/289 480/664/480 468/659/468
f 292/666/292 295/442/295 473/445/473 470/662/470
f 104/183/104 106/432/106 455/435/455 453/184/453
f 88/137/88 97/144/97 466/657/466 462/181/462
f 289/408/289 287/411/287 479/663/479 480/664/480
f 100/143/100 103/165/103 468/659/468 467/658/467
f 293/428/293 291/665/291 469/661/469 471/429/471
f 97/144/97 100/143/100 467/658/467 466/657/466
f 111/667/111 110/436/110 459/439/459 460/660/460
f 296/443/296 111/667/111 460/660/460 474/444/474
f 291/303/291 486/668/486 488/669/488 206/300/206
f 210/320/210 485/670/485 487/671/487 382/317/382
f 206/300/206 488/669/488 481/672/481 211/673/211
f 382/317/382 487/671/487 483/674/483 383/675/383
f 383/675/383 483/674/483 484/676/484 354/306/354
f 211/673/211 481/672/481 482/677/482 208/323/208
f 208/323/208 482/677/482 485/670/485 210/320/210
f 354/306/354 484/676/484 486/668/486 291/303/291
usemtl Material.001
f 188/263/188 187/264/187 204/265/204 178/266/178
f 184/267/184 185/268/185 179/269/179 205/270/205
f 178/266/178 204/265/204 203/272/203 172/273/172
f 172/273/172 203/272/203 205/270/205 179/269/179
f 185/268/185 186/274/186 172/273/172 179/269/179
f 186/274/186 188/263/188 178/266/178 172/273/172
f 183/278/183 182/277/182 188/263/188 186/274/186
f 181/280/181 183/278/183 186/274/186 185/268/185
f 180/282/180 181/280/181 185/268/185 184/267/184
f 182/277/182 200/284/200 187/264/187 188/263/188
f 348/504/348 341/505/341 204/265/204 187/264/187
f 184/506/184 205/507/205 342/508/342 346/509/346
f 341/505/341 336/511/336 203/272/203 204/265/204
f 336/511/336 342/508/342 205/507/205 203/272/203
f 346/509/346 342/508/342 336/511/336 347/512/347
f 347/512/347 336/511/336 341/505/341 348/504/348
f 345/514/345 347/512/347 348/504/348 344/515/344
f 343/518/343 346/509/346 347/512/347 345/514/345
f 180/520/180 184/506/184 346/509/346 343/518/343
f 344/515/344 348/504/348 187/264/187 200/284/200
f 513/678/513 514/679/514 516/680/516 515/681/515
f 515/681/515 516/680/516 518/682/518 517/683/517
f 493/684/493 494/685/494 514/679/514 513/678/513
f 494/685/494 489/686/489 495/687/495 514/679/514
f 514/679/514 495/687/495 496/688/496 516/680/516
f 516/680/516 496/688/496 497/689/497 518/682/518
f 518/682/518 497/689/497 490/690/490 498/691/498
f 517/683/517 518/682/518 498/691/498 499/692/499
f 519/693/519 520/694/520 522/695/522 521/696/521
f 521/696/521 522/695/522 524/697/524 523/698/523
f 499/692/499 498/691/498 520/694/520 519/693/519
f 498/691/498 490/690/490 500/699/500 520/694/520
f 520/694/520 500/699/500 501/700/501 522/695/522
f 522/695/522 501/700/501 502/701/502 524/697/524
f 524/697/524 502/701/502 492/702/492 503/703/503
f 523/698/523 524/697/524 503/703/503 504/704/504
f 525/705/525 526/706/526 528/707/528 527/708/527
f 527/708/527 528/707/528 530/709/530 529/710/529
f 504/704/504 503/703/503 526/706/526 525/705/525
f 503/703/503 492/702/492 505/711/505 526/706/526
f 526/706/526 505/711/505 506/712/506 528/707/528
f 528/707/528 506/712/506 507/713/507 530/709/530
f 530/709/530 507/713/507 491/714/491 508/715/508
f 529/710/529 530/709/530 508/715/508 509/716/509
f 531/717/531 532/718/532 534/719/534 533/720/533
f 533/720/533 534/719/534 536/721/536 535/722/535
f 509/716/509 508/715/508 532/718/532 531/717/531
f 508/715/508 491/714/491 510/723/510 532/718/532
f 532/718/532 510/723/510 511/724/511 534/719/534
f 534/719/534 511/724/511 512/725/512 536/721/536
f 536/721/536 512/725/512 489/686/489 494/685/494
f 535/722/535 536/721/536 494/685/494 493/684/493
f 537/726/537 538/727/538 541/728/541 540/729/540
f 538/727/538 539/730/539 542/731/542 541/728/541
f 540/729/540 541/728/541 544/732/544 543/733/543
f 541/728/541 542/731/542 545/734/545 544/732/544
f 492/702/492 502/701/502 537/726/537 505/711/505
f 502/701/502 501/700/501 538/727/538 537/726/537
f 501/700/501 500/699/500 539/730/539 538/727/538
f 500/699/500 490/690/490 497/689/497 539/730/539
f 539/730/539 497/689/497 496/688/496 542/731/542
f 542/731/542 496/688/496 495/687/495 545/734/545
f 545/734/545 495/687/495 489/686/489 512/725/512
f 544/732/544 545/734/545 512/725/512 511/724/511
f 543/733/543 544/732/544 511/724/511 510/723/510
f 507/713/507 543/733/543 510/723/510 491/714/491
f 506/712/506 540/729/540 543/733/543 507/713/507
f 505/711/505 537/726/537 540/729/540 506/712/506
f 570/735/570 572/736/572 573/737/573 571/738/571
f 572/736/572 574/739/574 575/740/575 573/737/573
f 550/741/550 570/735/570 571/738/571 551/742/551
f 551/742/551 571/738/571 552/743/552 546/744/546
f 571/738/571 573/737/573 553/745/553 552/743/552
f 573/737/573 575/740/575 554/746/554 553/745/553
f 575/740/575 555/747/555 547/748/547 554/746/554
f 574/739/574 556/749/556 555/747/555 575/740/575
f 576/750/576 578/751/578 579/752/579 577/753/577
f 578/751/578 580/754/580 581/755/581 579/752/579
f 556/749/556 576/750/576 577/753/577 555/747/555
f 555/747/555 577/753/577 557/756/557 547/748/547
f 577/753/577 579/752/579 558/757/558 557/756/557
f 579/752/579 581/755/581 559/758/559 558/757/558
f 581/755/581 560/759/560 549/760/549 559/758/559
f 580/754/580 561/761/561 560/759/560 581/755/581
f 582/762/582 584/763/584 585/764/585 583/765/583
f 584/763/584 586/766/586 587/767/587 585/764/585
f 561/761/561 582/762/582 583/765/583 560/759/560
f 560/759/560 583/765/583 562/768/562 549/760/549
f 583/765/583 585/764/585 563/769/563 562/768/562
f 585/764/585 587/767/587 564/770/564 563/769/563
f 587/767/587 565/771/565 548/772/548 564/770/564
f 586/766/586 566/773/566 565/771/565 587/767/587
f 588/774/588 590/775/590 591/776/591 589/777/589
f 590/775/590 592/778/592 593/779/593 591/776/591
f 566/773/566 588/774/588 589/777/589 565/771/565
f 565/771/565 589/777/589 567/780/567 548/772/548
f 589/777/589 591/776/591 568/781/568 567/780/567
f 591/776/591 593/779/593 569/782/569 568/781/568
f 593/779/593 551/742/551 546/744/546 569/782/569
f 592/778/592 550/741/550 551/742/551 593/779/593
f 594/783/594 597/784/597 598/785/598 595/786/595
f 595/786/595 598/785/598 599/787/599 596/788/596
f 597/784/597 600/789/600 601/790/601 598/785/598
f 598/785/598 601/790/601 602/791/602 599/787/599
f 549/760/549 562/768/562 594/783/594 559/758/559
f 559/758/559 594/783/594 595/786/595 558/757/558
f 558/757/558 595/786/595 596/788/596 557/756/557
f 557/756/557 596/788/596 554/746/554 547/748/547
f 596/788/596 599/787/599 553/745/553 554/746/554
f 599/787/599 602/791/602 552/743/552 553/745/553
f 602/791/602 569/782/569 546/744/546 552/743/552
f 601/790/601 568/781/568 569/782/569 602/791/602
f 600/789/600 567/780/567 568/781/568 601/790/601
f 564/770/564 548/772/548 567/780/567 600/789/600
f 563/769/563 564/770/564 600/789/600 597/784/597
f 562/768/562 563/769/563 597/784/597 594/783/594
usemtl Fangs.001
f 613/792/611 614/793/612 606/794/604 604/795/604
f 619/796/617 620/797/618 608/798/606 607/799/605
f 618/800/616 617/801/615 610/802/608 609/803/607
f 616/804/614 615/805/613 611/806/609 612/807/610
f 609/803/607 610/802/608 614/793/612 613/792/611
f 603/808/603 605/809/603 615/805/613 616/804/614
f 607/799/605 608/798/606 617/801/615 618/800/616
f 612/807/610 611/806/609 620/797/618 619/796/617
f 631/810/626 632/811/627 624/812/620 622/813/620
f 637/814/632 638/815/632 626/816/621 625/817/621
f 636/818/631 635/819/630 628/820/623 627/821/622
f 634/822/629 633/823/628 629/824/624 630/825/625
f 627/821/622 628/820/623 632/811/627 631/810/626
f 621/826/619 623/827/619 633/823/628 634/822/629
f 625/817/621 626/816/621 635/819/630 636/818/631
f 630/825/625 629/824/624 638/815/632 637/814/632
